<svg xmlns="http://www.w3.org/2000/svg" width="23.15" height="36.297" viewBox="0 0 23.15 36.297"><defs><style>.a{fill:#fff;}</style></defs><g transform="translate(-72.806)"><path class="a" d="M95.724,8.224a.8.8,0,0,0-.593-.232H90.723a8.923,8.923,0,0,0-1.65-3.712h6.006a.792.792,0,0,0,.824-.825V.825A.793.793,0,0,0,95.079,0H73.631a.794.794,0,0,0-.825.825V4.253a.836.836,0,0,0,.825.825h3.738q5.439,0,6.909,2.913H73.631a.794.794,0,0,0-.825.825v2.63a.794.794,0,0,0,.825.824H84.639A5.037,5.037,0,0,1,82,15.493,11.633,11.633,0,0,1,76.518,16.6H73.631a.836.836,0,0,0-.825.825V20.7a.771.771,0,0,0,.232.567q4.949,5.259,12.838,14.72a.76.76,0,0,0,.645.309h5.027a.748.748,0,0,0,.748-.464.7.7,0,0,0-.1-.877q-7.527-9.229-11.832-13.818A13.074,13.074,0,0,0,87.475,18.3,9.638,9.638,0,0,0,90.8,12.271h4.331a.794.794,0,0,0,.825-.824V8.817A.8.8,0,0,0,95.724,8.224Z" transform="translate(0 0)"/></g></svg>