<svg xmlns="http://www.w3.org/2000/svg" width="78.54" height="77.912" viewBox="0 0 78.54 77.912"><defs><style>.a{fill:#009883;}.b{fill:#007579;}.c{fill:#006468;}.d{fill:#ffcd00;}.e{fill:#ddb200;}.f{fill:#ffc477;}.g{fill:#2488ff;}</style></defs><g transform="translate(17.017 20.315)"><path class="a" d="M153.213,302.2h60.214v34.034H153.213Z" transform="translate(-153.213 -302.198)"/><path class="a" d="M153.213,302.2h60.214v34.034H153.213Z" transform="translate(-153.213 -302.198)"/><path class="a" d="M153.213,302.2h60.214v34.034H153.213Z" transform="translate(-153.213 -302.198)"/><path class="a" d="M153.213,302.2h60.214v34.034H153.213Z" transform="translate(-153.213 -302.198)"/></g><path class="b" d="M253.93,259.72v6.545H204.188l47.163-6.2Z" transform="translate(-179.317 -245.95)"/><path class="c" d="M229.824,223.787l.039.34-47.163,6.2h-3.914l51.038-13.09Z" transform="translate(-157.829 -210.017)"/><path class="d" d="M284.8,336.181a11.781,11.781,0,1,1-10.564,16.991,5.324,5.324,0,0,0,.956-3c-.013-.314-.039-.615-.079-.916a5.336,5.336,0,0,0-1.453-2.788,4.817,4.817,0,0,0-.484-.419A11.781,11.781,0,0,1,284.8,336.181Z" transform="translate(-237.672 -310.63)"/><path class="e" d="M346.095,347.962a11.781,11.781,0,0,1-11.781,11.781,12.127,12.127,0,0,1-2.6-.288,11.781,11.781,0,0,0,.013-22.973,11.252,11.252,0,0,1,2.592-.3A11.781,11.781,0,0,1,346.095,347.962Z" transform="translate(-287.19 -310.63)"/><path class="f" d="M87.394,216.151c.039.3.065.6.079.916a5.324,5.324,0,0,1-.956,3,4.762,4.762,0,0,1-.576.694L74.828,231.872l4.241,4.241a7.845,7.845,0,0,1,2.3,5.563v4.594H56.122l-4.66-16.31a5.377,5.377,0,0,1-.2-1.44V212.329a5.138,5.138,0,0,1,.707-2.618l16.31-28.261a5.237,5.237,0,1,1,9.071,5.236l-6.44,11.152h-3.94v27.489l11.559-11.964a5.236,5.236,0,0,1,6.925-.419,4.821,4.821,0,0,1,.484.419,5.337,5.337,0,0,1,1.453,2.788Z" transform="translate(-49.957 -177.523)"/><path class="g" d="M97.055,616.539v7.854h-28.8v-7.854h28.8Z" transform="translate(-64.33 -547.791)"/><path class="b" d="M510.032,302.2h5.236v34.034h-5.236Z" transform="translate(-438.037 -281.883)"/><path d="M120,189.354h-1.309v-5.236a1.309,1.309,0,0,0-1.311-1.307,1.283,1.283,0,0,0-.168.011l-1.139.144v-5.393a1.289,1.289,0,0,0-.51-1.034,1.328,1.328,0,0,0-1.126-.236L66.423,188.621l4.882-8.456a6.631,6.631,0,0,0,.864-3.259,6.545,6.545,0,0,0-12.213-3.286l-16.3,28.248a6.509,6.509,0,0,0-.89,3.286v16.192a6.447,6.447,0,0,0,.249,1.793l4.176,14.648h-.5a1.309,1.309,0,0,0-1.309,1.309v7.854A1.309,1.309,0,0,0,46.7,248.26h28.8a1.309,1.309,0,0,0,1.309-1.309V239.1a1.309,1.309,0,0,0-1.309-1.309V234.5a9.164,9.164,0,0,0-2.683-6.493l-2.016-2H120a1.309,1.309,0,0,0,1.309-1.309V190.663A1.309,1.309,0,0,0,120,189.354Zm-3.927-3.744v3.744H87.629Zm-2.618-6.349v4.058l-32.476,4.267Zm-39.27,66.38H48v-5.236h26.18Zm-7.749-20.447a1.2,1.2,0,0,0,.288.419l-.013.013,4.241,4.241a6.473,6.473,0,0,1,1.924,4.634v3.286H49.916l-4.385-15.355a4.347,4.347,0,0,1-.144-1.087V205.154a3.817,3.817,0,0,1,.537-1.963l16.31-28.261a3.894,3.894,0,0,1,5.313-1.451l.041.024a3.862,3.862,0,0,1,1.964,3.4,3.928,3.928,0,0,1-.524,1.95l-6.061,10.5H59.786a1.309,1.309,0,0,0-1.309,1.309v27.489a1.33,1.33,0,0,0,.812,1.217,1.309,1.309,0,0,0,1.44-.314l11.545-11.938a3.936,3.936,0,0,1,6.637,2.029c.026.262.052.524.065.733a4.012,4.012,0,0,1-1.152,2.775L66.711,223.768A1.309,1.309,0,0,0,66.436,225.195Zm52.255-1.806h-47.9l8.312-8.3a12.959,12.959,0,0,0,10.786,5.681,13.09,13.09,0,1,0-12.488-16.978,6.588,6.588,0,0,0-7,1.492l-9.307,9.634V191.972h57.6Zm-37.2-14.661a6.579,6.579,0,0,0-1.78-3.429,10.5,10.5,0,1,1,1.126,7.579,7.039,7.039,0,0,0,.759-3.037C81.581,209.487,81.542,209.146,81.489,208.727Z" transform="translate(-42.769 -170.348)"/><path d="M181.317,325.569a5.254,5.254,0,0,0,3.761-3.761h2.784V319.19h-3.927a1.309,1.309,0,0,0-1.309,1.309,2.618,2.618,0,0,1-2.618,2.618,1.309,1.309,0,0,0-1.309,1.309v3.927h2.618v-2.784Z" transform="translate(-157.755 -296.257)"/><path d="M465.6,334.065v2.784h2.618v-3.927a1.309,1.309,0,0,0-1.309-1.309,2.618,2.618,0,0,1-2.618-2.618,1.309,1.309,0,0,0-1.309-1.309H459.06V330.3h2.784A5.253,5.253,0,0,0,465.6,334.065Z" transform="translate(-394.919 -303.444)"/><path d="M464.3,445.984a2.618,2.618,0,0,1,2.618-2.618,1.309,1.309,0,0,0,1.309-1.309V438.13H465.6v2.784a5.254,5.254,0,0,0-3.761,3.761H459.06v2.618h3.927A1.309,1.309,0,0,0,464.3,445.984Z" transform="translate(-394.919 -396.87)"/></svg>