<?xml version="1.0" encoding="utf-8"?>
<!-- Generator: Adobe Illustrator 23.0.5, SVG Export Plug-In . SVG Version: 6.00 Build 0)  -->
<svg version="1.1" xmlns="http://www.w3.org/2000/svg" xmlns:xlink="http://www.w3.org/1999/xlink" x="0px" y="0px"
	 viewBox="0 0 1836.43 591.22" style="enable-background:new 0 0 1836.43 591.22;" xml:space="preserve">
<style type="text/css">
	.st0{fill:#10B8DA;}
	.st1{fill:#FFFFFF;}
	.st2{fill:none;stroke:#10B8DA;stroke-width:0.1;stroke-miterlimit:10;}
</style>
<g id="Layer_2">
	<rect x="1048.79" y="46.56" class="st0" width="10" height="49"/>
	<path class="st0" d="M0,480.47h22.71v-25.5h1.38V398.1h1.38v-13.63c0,0,6.17-10,11.08-10.08c1.58,0.04,3.67,0,3.67,0
		s9.31,5.96,9.31,12.77s0,11.02,0,11.02l14.56-0.05v-3.66l27.29-0.08l9.42-10.92h3.5v-25.13h8.92v-7.13l66-0.37l0.19,5.09l7.22,0.06
		v25.78l3.72-0.06v-5.55h11.04v5.47l5.46,0.04v-34.46c0,0,11.71-31.42,25.96-34.92c5.32-0.04,12.44-0.1,12.44-0.1
		s18.4,6.19,26.4,34.02c0,27.17,0,39.5,0,39.5l4.42,0.08l-0.17,8.58l57.21-0.67l-0.06-134.5c0,0,1.88-0.06,1.88-3.94
		c-3,0-7.25,0-7.25,0l0.19-49.19h2.25l0.18,6.82l3.11,0.14l-0.17-6.96l128.08,0.29v6.33h3.67v-6.88h3.75v49.75l-9.38,0.25
		c0,0-0.14,2.81,1.98,2.81c-0.06,1.81,0.02,5,0.02,5l-0.5,216.81h7.88v-10.5l1.69-0.02V418.6c0,0-2.44-7.69-7.19-8.06
		c-0.13-1-0.06-1.81-0.06-1.81l7.25,0.04v-23.21l53.06-1v-17.5l1.83-0.08v-12.58l10.79-0.04v11l27.46-0.04c0,0,0.23-3.77,2.04-3.83
		s1.94,3.88,1.94,3.88l27.44-0.13v-14.33l12.67-0.33v18.67h2v15.83h50.83l0.31,18.6l5.19,0.06v1.42c0,0-4.92,1.67-5,6.42
		s0,57.67,0,57.67l3.25,0.08l0.25,11.17h7.5v-20l5.25-0.33v-16.17l12.92-5.67v-16.08c0,0,4.46-10.5,10.33-10.5s10,12.75,10,12.75
		v8.63l5.25-0.13v-47.5l2.5-0.25v-76.5l-2.92-0.33l0.42-11l5.67-0.08v-49.33l1.73,0.04v8.96l3.69-0.08c0,0,11.01-4.67,10.17-44.17
		c2.15-0.02,4.58-2.75,4.58-2.75s-3.58,43.08,11.58,47.08c1.11-0.01,1.47-0.01,1.47-0.01v-9.08h2.03v40.42v8.46l7.71,1.25v9.75
		l-3.38,0.25l0.5,77.13l2.88,0.17v18.08h11.79v-11.13l14.58,0.25v3.63l3.88-0.13v-9.04l1.88-0.17V282.72l3.33,0.17v-13l40.33,0.17
		v12.83l12.67-0.33v121.42h7.92v-25.75l8.5,0.25l0.75-31.08l5.17-0.17v-156h3.58v-5.42h3.58v3.75l3.83,0.08v-3.83h5.5v3.79
		l5.46-0.13v-5.5h14.38c0,0,2.75,6.88,7.25,6.88s7.66-0.06,7.66-0.06v167.06l18.09-0.13v-5.25l5.75,0.25v13.75l5.25-0.13v13.5h4
		v21.63h3.5v-33l12.75-0.19v-8.69c0,0,6.58-5.37,13.08-5.54c6.5-0.17,11.5,5.5,11.5,5.5l2.92-0.25v-93.58h3.75v-69.5l3.63,0.13
		v-48.63h7.63v-35c0,0,14.75-21.25,36.75-21s34.75,20.75,34.75,20.75v35.25h9.25v49l3.17,0.17v68.67l4.52-0.02l-0.94,163.44
		l19.92-0.08v-43.33l-4-0.5l-0.17-5.67c0,0,6.67-4,8.67-7.5c1.96-0.17,3.96-0.04,3.96-0.04v5.94l19.54-0.4V266.22h3.25v-69.25h3.75
		v-47.92l5.42,0.08v-35.92c0,0,14.08-22,38.08-21.5c24,0.5,36.33,22.5,36.33,22.5v34.33h6.67v47.33l5.33-0.33v70.33h2.33v214.58
		h24.42v-25.25l4.25,0.25v-19l-8.5,0.25l0.25-4l9.75-0.33v-10.83l25.75,0.04V264.22l7.75,0.17v-12.67l30.33-0.33c0,0,4-0.17,4,5.5
		s0,9.33,0,9.33l9-0.33v157.33l11.92,0.25h25v-32.25l5.25-0.25v3.25l18.29-0.42l0.21-3.46l5.25,0.5v32.63l40.5,0.13v-34.38l2.5,0.13
		v6.63l74.08-0.08c0,0,12.29-17.1,20.35-17.6c1.9-0.15,5.81-0.15,5.81-0.15s10,0.96,19.83,18.42c9.5,0.17,56.33-0.17,56.33-0.17
		v-34.17c0,0-6.33-3.33-7-6.67c-0.67-3.33,1.33-11.67,1.33-11.67l34.75-0.41l1.38,11.37c0,0-2.63,7.21-7.96,8.38
		c-0.17,4.67-0.33,32.33-0.33,32.33l96.5-1v4.67l-3,1.33l0.17,52.5h53v27.42h20.47v110.75H0V480.47z"/>
	<rect x="1051.46" y="12.56" class="st0" width="4" height="38"/>
	<polygon class="st0" points="1023.63,108.39 1050.63,54.06 1050.63,57.72 1026.29,107.22 	"/>
	<polyline class="st0" points="1037.13,100.39 1050.63,58.72 1051.46,62.22 1039.29,100.39 1037.13,101.06 	"/>
	<polygon class="st0" points="1057.46,63.39 1067.96,101.06 1070.79,101.06 1058.79,63.39 	"/>
	<polygon class="st0" points="1058.13,58.72 1078.79,104.22 1083.04,104.46 1058.79,57.56 	"/>
	<rect x="1200.46" y="11.56" class="st0" width="4" height="38"/>
	<polygon class="st0" points="1172.63,107.39 1199.63,53.06 1199.63,56.72 1175.29,106.22 	"/>
	<polyline class="st0" points="1186.13,99.39 1199.63,57.72 1200.46,61.22 1188.29,99.39 1186.13,100.06 	"/>
	<polygon class="st0" points="1206.46,62.39 1216.96,100.06 1219.79,100.06 1207.79,62.39 	"/>
	<polygon class="st0" points="1207.13,57.72 1227.79,103.22 1233.21,106.06 1207.79,56.56 	"/>
	<rect x="1197.79" y="46.56" class="st0" width="10" height="49"/>
	<polygon class="st0" points="337.59,208.22 333.26,208.22 332.92,184.56 337.09,184.56 	"/>
	<rect x="457.46" y="184.89" class="st0" width="3.83" height="24.58"/>
	<path class="st0" d="M1647.84,344.22l0.03-19.67h-5.58v-3.33h5.58v-12.5c0,0,2.52-6.17,9.71-6.17s9.89,6.33,9.89,6.33l-0.25,12.27
		h5.87v3.19l-5.87-0.06l0.49,19.72l-2.5-0.03l-0.59-21.47c0,0-0.11-2.22-1.47-2.25c-1.27-0.03-1.63,2.31-1.63,2.31l-0.23,21.66
		h-6.21l-0.58-21.58c0,0,0.17-2.29-1.29-2.29c-1.59,0-1.46,2.25-1.46,2.25l-0.13,21.63H1647.84z"/>
	<path class="st0" d="M1406.73,394.82v-11.86h-3.43v-2.05h3.43v-7.7c0,0,1.55-3.8,5.98-3.8c4.43,0,6.09,3.9,6.09,3.9l-0.15,7.55
		h3.61v1.96l-3.61-0.04l0.32,11.89l-1.6,0.01l-0.33-13c0,0-0.07-1.37-0.9-1.39c-0.78-0.02-1,1.42-1,1.42l-0.12,12.98l-3.85,0.1
		l-0.36-13.04c0,0,0.1-1.41-0.8-1.41c-0.98,0-0.9,1.38-0.9,1.38l-0.1,13.07H1406.73z"/>
	<polygon class="st0" points="1660.71,307.85 1654.34,307.85 1656.34,290.22 1658.56,290.22 	"/>
	<polygon class="st0" points="1414.25,370.85 1410.68,370.85 1411.8,360.97 1413.04,360.97 	"/>
	<g>
		<rect x="339.84" y="186.72" class="st0" width="1.25" height="24.88"/>
		<rect x="343.25" y="186.72" class="st0" width="1.25" height="24.88"/>
		<rect x="346.25" y="186.72" class="st0" width="1.25" height="24.88"/>
		<rect x="349.34" y="186.72" class="st0" width="1.25" height="24.88"/>
		<rect x="352.17" y="186.72" class="st0" width="1.25" height="24.88"/>
		<rect x="355.09" y="186.72" class="st0" width="1.25" height="24.88"/>
		<rect x="358.21" y="186.72" class="st0" width="1.25" height="24.88"/>
		<rect x="361.52" y="186.72" class="st0" width="1.25" height="24.88"/>
		<rect x="364.46" y="186.72" class="st0" width="1.25" height="24.88"/>
		<rect x="367.34" y="186.72" class="st0" width="1.25" height="24.88"/>
		<rect x="370.21" y="186.72" class="st0" width="1.25" height="24.88"/>
		<rect x="373.15" y="186.72" class="st0" width="1.25" height="24.88"/>
		<rect x="375.9" y="186.72" class="st0" width="1.25" height="24.88"/>
		<rect x="378.65" y="186.72" class="st0" width="1.25" height="24.88"/>
		<rect x="381.52" y="186.72" class="st0" width="1.25" height="24.88"/>
		<rect x="384.34" y="186.72" class="st0" width="1.25" height="24.88"/>
		<rect x="387.42" y="186.72" class="st0" width="1.25" height="24.88"/>
	</g>
	<g>
		<rect x="390.92" y="186.72" class="st0" width="1.25" height="24.88"/>
		<rect x="394.34" y="186.72" class="st0" width="1.25" height="24.88"/>
		<rect x="397.34" y="186.72" class="st0" width="1.25" height="24.88"/>
		<rect x="400.42" y="186.72" class="st0" width="1.25" height="24.88"/>
		<rect x="403.25" y="186.72" class="st0" width="1.25" height="24.88"/>
		<rect x="406.17" y="186.72" class="st0" width="1.25" height="24.88"/>
		<rect x="409.29" y="186.72" class="st0" width="1.25" height="24.88"/>
		<rect x="412.61" y="186.72" class="st0" width="1.25" height="24.88"/>
		<rect x="415.54" y="186.72" class="st0" width="1.25" height="24.88"/>
		<rect x="418.42" y="186.72" class="st0" width="1.25" height="24.88"/>
		<rect x="421.29" y="186.72" class="st0" width="1.25" height="24.88"/>
		<rect x="424.23" y="186.72" class="st0" width="1.25" height="24.88"/>
		<rect x="426.98" y="186.72" class="st0" width="1.25" height="24.88"/>
		<rect x="429.73" y="186.72" class="st0" width="1.25" height="24.88"/>
		<rect x="432.61" y="186.72" class="st0" width="1.25" height="24.88"/>
		<rect x="435.42" y="186.72" class="st0" width="1.25" height="24.88"/>
		<rect x="438.5" y="186.72" class="st0" width="1.25" height="24.88"/>
	</g>
	<g>
		<rect x="441.42" y="186.72" class="st0" width="1.25" height="24.88"/>
		<rect x="444.84" y="186.72" class="st0" width="1.25" height="24.88"/>
		<rect x="447.84" y="186.72" class="st0" width="1.25" height="24.88"/>
		<rect x="450.92" y="186.72" class="st0" width="1.25" height="24.88"/>
		<rect x="453.75" y="186.72" class="st0" width="1.25" height="24.88"/>
	</g>
	<rect x="332.95" y="186.72" class="st0" width="128.34" height="2.25"/>
	<path class="st0" d="M1056.79,10.81c0,1.89-1.53,3.42-3.42,3.42c-1.89,0-3.42-1.53-3.42-3.42s1.53-3.42,3.42-3.42
		C1055.26,7.39,1056.79,8.92,1056.79,10.81z"/>
	<path class="st0" d="M1205.88,10.81c0,1.89-1.53,3.42-3.42,3.42c-1.89,0-3.42-1.53-3.42-3.42s1.53-3.42,3.42-3.42
		C1204.35,7.39,1205.88,8.92,1205.88,10.81z"/>
	<rect x="232.34" y="297.22" class="st0" width="2.13" height="20.38"/>
	<rect x="236.15" y="297.22" class="st0" width="2.13" height="20.38"/>
	<rect x="239.9" y="297.22" class="st0" width="2.13" height="20.38"/>
	<rect x="243.4" y="297.22" class="st0" width="2.13" height="20.38"/>
	<path class="st0" d="M36.88,368.12c0.75-0.75,1.32-0.48,1.99,0.35c1.38,1.71,1.2,8.29,1.2,8.29h-4.25
		C35.82,376.76,35.33,369.68,36.88,368.12z"/>
	<g>
		<path class="st0" d="M538.17,355.22h-15.46v-2.37h1.79c0,0,1.02-11.17,5.02-11.25c1.73,0,1.92,0,1.92,0s3.69,1.55,5.04,11.2
			c0.65,0.01,1.69,0.08,1.69,0.08V355.22z"/>
		<path class="st0" d="M529.72,337.54c0.47-0.47,0.82-0.3,1.24,0.22c0.86,1.07,0.75,5.18,0.75,5.18h-2.65
			C529.06,342.94,528.75,338.51,529.72,337.54z"/>
	</g>
	<g>
		<path class="st0" d="M609.17,353.22h-15.46v-2.37h1.79c0,0,1.02-11.17,5.02-11.25c1.73,0,1.92,0,1.92,0s3.69,1.55,5.04,11.2
			c0.65,0.01,1.69,0.08,1.69,0.08V353.22z"/>
		<path class="st0" d="M600.72,335.54c0.47-0.47,0.82-0.3,1.24,0.22c0.86,1.07,0.75,5.18,0.75,5.18h-2.65
			C600.06,340.94,599.75,336.51,600.72,335.54z"/>
	</g>
	<path class="st0" d="M698.79,404.57c0.85-0.85,1.5-0.54,2.25,0.39c1.56,1.93,1.36,9.4,1.36,9.4h-4.82
		C697.59,414.37,697.03,406.33,698.79,404.57z"/>
	<rect x="37.26" y="360.35" class="st0" width="0.95" height="8.88"/>
	<g>
		<path class="st0" d="M1406.9,233.1c0.31,0.62,1.3,1.18,1.69,1.79c0.75,1.18,1.52,2.32,2.21,3.54c0.34,0.6,0.78,2.07,1.34,2.5
			c0.78,0.6,1.57,0.79,2.34,1.49c1.82,1.67,3.3,4.23,4.15,6.53c0.24,0.64,0.57,1.58,0.7,2.51c0.37-1.9,1.95-4.18,2.56-5.18
			c1.85-2.98,3.46-5.83,6.59-7.65c3.04-1.76,7.54-2.59,11-2.36c2.15,0.14,4.31-0.05,6.46,0.02c1.36,0.04,3.34-0.18,4.49,0.72
			l-0.03,0.05c-0.11-0.04-0.22-0.07-0.33-0.11l-0.11,0.1c-2.91,0.18-5.9,2.06-8.42,3.43c-2.46,1.34-5.2,1.82-7.72,3.01
			c-2.97,1.4-5.44,3.43-7.38,6.06c-0.97,1.32-2.6,4.29-2.57,6.25l0.03,0.11c0.33,0.34,0.66,0.69,0.97,1.05l0.01,0.01
			c0.32,0.05,0.66,0.05,1.02-0.01c1.68-0.28,2.92-1.46,4.49-2l0.04,0.05c-0.87,1.28-2.26,2.25-3.75,2.81
			c0.38,0.04,0.77,0.06,1.16,0.08c0.25-0.07,0.49-0.13,0.75-0.17c1.81-0.32,3.31-1.34,5.08-1.75l0.09,0.16
			c-0.94,0.79-2.08,1.45-3.27,1.89c1.46-0.3,2.93-0.6,4.45-0.54c0.09,0,0.14,0.13,0.05,0.18c-2.02,0.9-4.07,1.75-6.07,2.67
			c-1.33,0.61-3.53,0.43-5.3,0.13c0.38,0.48,0.83,0.9,1.31,1.27c0.4,0.31,0.88,0.54,1.22,0.91l-0.04,0.05
			c-0.66-0.34-1.41-0.33-2.09-0.71c-0.6-0.33-1.11-0.84-1.55-1.35l-0.23-0.25c-1.27-0.04-2.52-0.42-3.72-0.83
			c-1.37-0.48-3.53-1.66-4.19-3.23c-1.26-0.04-2.66-0.34-3.03-1.71l-0.04-0.18c-0.09-0.05-0.18-0.11-0.26-0.15
			c-0.1-0.05-0.76-0.39-1.06-0.69l-0.13-0.02c-0.22-0.06-0.25-0.36-0.06-0.48c0.48-0.29,1.05-0.44,1.61-0.56
			c0.24-0.66,0.75-1.16,1.62-1.15c0.61,0.01,1.23-0.03,1.76,0.06c0-0.2,0-0.41-0.01-0.61c-0.12-0.95-0.33-1.87-0.56-2.85
			c-0.79-1.48-1.71-2.87-2.8-4.28c-1.07-1.4-1.23-3.14-1.66-4.8c-0.54-2.05-2.56-3.72-2.92-5.74"/>
	</g>
	<path class="st0" d="M1520.82,389.14c0,0-6.18-8.38-12.25-11.89v26.95h-1.87v-26.68c-1.93,1.36-5.94,4.86-8.42,11.67v0.35
		l-0.32-0.84c0.24-2.88,1.17-9.09,4.89-12.51c0,0-8.52-3.22-13.39,2.78c0.18-0.54,3.59-9.52,13-8.42c0,0-4.14-9.81-11.67-9.04
		c0,0,8.49-2.67,13.56,4.59c0,0,1.98-8.35-1.89-13.23c0,0,5.19,4.13,5.38,10.85c0,0,2.36-8.28,8.26-9.84c0,0-3.7,4.13-3.56,12.26
		c0,0,7.36-4.54,13.68-2.13c0,0-8.35,1.04-11.58,7.11c0,0,8.17,1.71,12.04,11.45c-0.35-0.39-6.41-7.11-14.23-5.95
		C1512.43,376.63,1519.48,381.28,1520.82,389.14z"/>
	<path class="st0" d="M1453.68,419.52c0,0-4.21-5.71-8.35-8.1v18.36h-1.28V411.6c-1.32,0.92-4.05,3.31-5.74,7.95v0.24l-0.22-0.57
		c0.17-1.97,0.8-6.19,3.33-8.52c0,0-5.8-2.19-9.13,1.9c0.13-0.37,2.45-6.49,8.86-5.74c0,0-2.82-6.69-7.95-6.16
		c0,0,5.78-1.82,9.24,3.13c0,0,1.35-5.69-1.29-9.02c0,0,3.54,2.81,3.66,7.39c0,0,1.61-5.64,5.63-6.71c0,0-2.52,2.81-2.43,8.35
		c0,0,5.01-3.1,9.32-1.45c0,0-5.69,0.71-7.89,4.84c0,0,5.57,1.17,8.2,7.8c-0.24-0.26-4.37-4.84-9.7-4.06
		C1447.96,411,1452.77,414.16,1453.68,419.52z"/>
	<path class="st0" d="M1788.9,444.4c0,0-5.04-6.83-9.98-9.69v21.96h-1.53v-21.74c-1.58,1.11-4.84,3.96-6.86,9.51v0.29l-0.26-0.68
		c0.2-2.35,0.96-7.41,3.99-10.19c0,0-6.94-2.62-10.91,2.27c0.15-0.44,2.93-7.76,10.59-6.86c0,0-3.38-7.99-9.51-7.36
		c0,0,6.91-2.17,11.05,3.74c0,0,1.61-6.8-1.54-10.78c0,0,4.23,3.36,4.38,8.84c0,0,1.92-6.75,6.73-8.02c0,0-3.02,3.36-2.9,9.99
		c0,0,6-3.7,11.15-1.73c0,0-6.8,0.85-9.43,5.79c0,0,6.65,1.39,9.81,9.33c-0.29-0.31-5.23-5.79-11.59-4.85
		C1782.06,434.21,1787.81,437.99,1788.9,444.4z"/>
	<path class="st0" d="M1832.02,477.49c0,0-4.68-5.33-9.26-7.56v17.14h-1.42V470.1c-1.46,0.86-4.49,3.09-6.37,7.42v0.23l-0.24-0.53
		c0.18-1.83,0.89-5.78,3.7-7.96c0,0-6.44-2.05-10.13,1.77c0.14-0.34,2.72-6.06,9.83-5.35c0,0-3.13-6.24-8.83-5.75
		c0,0,6.42-1.7,10.26,2.92c0,0,1.5-5.31-1.43-8.42c0,0,3.93,2.62,4.07,6.9c0,0,1.79-5.27,6.25-6.26c0,0-2.8,2.62-2.7,7.8
		c0,0,5.57-2.89,10.35-1.35c0,0-6.31,0.66-8.76,4.52c0,0,6.18,1.09,9.1,7.29c-0.27-0.25-4.85-4.52-10.76-3.79
		C1825.67,469.54,1831.01,472.49,1832.02,477.49z"/>
	<polygon class="st0" points="565.96,386.22 564.71,387.22 564.71,310.72 565.96,309.72 	"/>
	<path class="st0" d="M230.77,297.22h16.44v-1.81h-1.69c0,0-0.09-12.4-6.53-12.77c-6.31,0.31-6.22,12.71-6.22,12.71h-2V297.22z"/>
	<path class="st0" d="M239.9,282.35c0,1-0.46,1.81-1.03,1.81c-0.57,0-1.03-0.81-1.03-1.81s0.46-1.81,1.03-1.81
		C239.44,280.53,239.9,281.35,239.9,282.35z"/>
	<ellipse class="st0" cx="1657.52" cy="288.68" rx="1.96" ry="2.13"/>
	<g id="pattern_7_">
		<g id="pattern">
			<path class="st0" d="M1007.59,265.72h-7.63c0,0,0.25,2.08-2,2.17c0,0.29,0,0.65,0,0.65h9.62V265.72z"/>
			<path class="st0" d="M1007.59,270.72h-7.63c0,0,0.25,2.08-2,2.17c0,0.29,0,0.65,0,0.65h9.62V270.72z"/>
			<path class="st0" d="M1007.59,275.72h-7.63c0,0,0.25,2.08-2,2.17c0,0.29,0,0.65,0,0.65h9.62V275.72z"/>
			<path class="st0" d="M1007.59,280.72h-7.63c0,0,0.25,2.08-2,2.17c0,0.29,0,0.65,0,0.65h9.62V280.72z"/>
			<path class="st0" d="M1007.59,285.72h-7.63c0,0,0.25,2.08-2,2.17c0,0.29,0,0.65,0,0.65h9.62V285.72z"/>
			<path class="st0" d="M1007.59,290.72h-7.63c0,0,0.25,2.08-2,2.17c0,0.29,0,0.65,0,0.65h9.62V290.72z"/>
			<path class="st0" d="M1007.59,295.72h-7.63c0,0,0.25,2.08-2,2.17c0,0.29,0,0.65,0,0.65h9.62V295.72z"/>
			<path class="st0" d="M1007.59,300.72h-7.63c0,0,0.25,2.08-2,2.17c0,0.29,0,0.65,0,0.65h9.62V300.72z"/>
			<path class="st0" d="M1007.59,305.72h-7.63c0,0,0.25,2.08-2,2.17c0,0.29,0,0.65,0,0.65h9.62V305.72z"/>
			<path class="st0" d="M1007.59,310.72h-7.63c0,0,0.25,2.08-2,2.17c0,0.29,0,0.65,0,0.65h9.62V310.72z"/>
			<path class="st0" d="M1007.59,315.72h-7.63c0,0,0.25,2.08-2,2.17c0,0.29,0,0.65,0,0.65h9.62V315.72z"/>
			<path class="st0" d="M1007.59,320.72h-7.63c0,0,0.25,2.08-2,2.17c0,0.29,0,0.65,0,0.65h9.62V320.72z"/>
			<path class="st0" d="M1007.59,325.72h-7.63c0,0,0.25,2.08-2,2.17c0,0.29,0,0.65,0,0.65h9.62V325.72z"/>
			<path class="st0" d="M1007.59,330.72h-7.63c0,0,0.25,2.08-2,2.17c0,0.29,0,0.65,0,0.65h9.62V330.72z"/>
			<path class="st0" d="M1007.59,335.72h-7.63c0,0,0.25,2.08-2,2.17c0,0.29,0,0.65,0,0.65h9.62V335.72z"/>
			<path class="st0" d="M1007.59,340.72h-7.63c0,0,0.25,2.08-2,2.17c0,0.29,0,0.65,0,0.65h9.62V340.72z"/>
			<path class="st0" d="M1007.59,345.72h-7.63c0,0,0.25,2.08-2,2.17c0,0.29,0,0.65,0,0.65h9.62V345.72z"/>
			<path class="st0" d="M1007.59,350.72h-7.63c0,0,0.25,2.08-2,2.17c0,0.29,0,0.65,0,0.65h9.62V350.72z"/>
		</g>
		<g id="pattern_1_">
			<path class="st0" d="M1155.59,266.22h-7.52c0,0,0.15,2.58-2.1,2.67c0,0.29,0,0.65,0,0.65h9.62V266.22z"/>
			<path class="st0" d="M1155.59,271.72h-7.63c0,0,0.25,2.08-2,2.17c0,0.29,0,0.65,0,0.65h9.62V271.72z"/>
			<path class="st0" d="M1155.59,276.72h-7.63c0,0,0.25,2.08-2,2.17c0,0.29,0,0.65,0,0.65h9.62V276.72z"/>
			<path class="st0" d="M1155.59,281.72h-7.63c0,0,0.25,2.08-2,2.17c0,0.29,0,0.65,0,0.65h9.62V281.72z"/>
			<path class="st0" d="M1155.59,286.72h-7.63c0,0,0.25,2.08-2,2.17c0,0.29,0,0.65,0,0.65h9.62V286.72z"/>
			<path class="st0" d="M1155.59,291.72h-7.63c0,0,0.25,2.08-2,2.17c0,0.29,0,0.65,0,0.65h9.62V291.72z"/>
			<path class="st0" d="M1155.59,296.72h-7.63c0,0,0.25,2.08-2,2.17c0,0.29,0,0.65,0,0.65h9.62V296.72z"/>
			<path class="st0" d="M1155.59,301.72h-7.63c0,0,0.25,2.08-2,2.17c0,0.29,0,0.65,0,0.65h9.62V301.72z"/>
			<path class="st0" d="M1155.59,306.72h-7.63c0,0,0.25,2.08-2,2.17c0,0.29,0,0.65,0,0.65h9.62V306.72z"/>
			<path class="st0" d="M1155.59,311.72h-7.63c0,0,0.25,2.08-2,2.17c0,0.29,0,0.65,0,0.65h9.62V311.72z"/>
			<path class="st0" d="M1155.59,316.72h-7.63c0,0,0.25,2.08-2,2.17c0,0.29,0,0.65,0,0.65h9.62V316.72z"/>
			<path class="st0" d="M1155.59,321.72h-7.63c0,0,0.25,2.08-2,2.17c0,0.29,0,0.65,0,0.65h9.62V321.72z"/>
			<path class="st0" d="M1155.59,326.72h-7.63c0,0,0.25,2.08-2,2.17c0,0.29,0,0.65,0,0.65h9.62V326.72z"/>
			<path class="st0" d="M1155.59,331.72h-7.63c0,0,0.25,2.08-2,2.17c0,0.29,0,0.65,0,0.65h9.62V331.72z"/>
			<path class="st0" d="M1155.59,336.72h-7.63c0,0,0.25,2.08-2,2.17c0,0.29,0,0.65,0,0.65h9.62V336.72z"/>
			<path class="st0" d="M1155.59,341.72h-7.63c0,0,0.25,2.08-2,2.17c0,0.29,0,0.65,0,0.65h9.62V341.72z"/>
			<path class="st0" d="M1155.59,346.72h-7.63c0,0,0.25,2.08-2,2.17c0,0.29,0,0.65,0,0.65h9.62V346.72z"/>
			<path class="st0" d="M1155.59,351.72h-7.63c0,0,0.25,2.08-2,2.17c0,0.29,0,0.65,0,0.65h9.62V351.72z"/>
		</g>
		<g id="pattern_2_">
			<path class="st0" d="M1105.96,353.53h7.63c0,0-0.25-2.08,2-2.17c0-0.29,0-0.65,0-0.65h-9.62V353.53z"/>
			<path class="st0" d="M1105.96,348.53h7.63c0,0-0.25-2.08,2-2.17c0-0.29,0-0.65,0-0.65h-9.62V348.53z"/>
			<path class="st0" d="M1105.96,343.53h7.63c0,0-0.25-2.08,2-2.17c0-0.29,0-0.65,0-0.65h-9.62V343.53z"/>
			<path class="st0" d="M1105.96,338.53h7.63c0,0-0.25-2.08,2-2.17c0-0.29,0-0.65,0-0.65h-9.62V338.53z"/>
			<path class="st0" d="M1105.96,333.53h7.63c0,0-0.25-2.08,2-2.17c0-0.29,0-0.65,0-0.65h-9.62V333.53z"/>
			<path class="st0" d="M1105.96,328.53h7.63c0,0-0.25-2.08,2-2.17c0-0.29,0-0.65,0-0.65h-9.62V328.53z"/>
			<path class="st0" d="M1105.96,323.53h7.63c0,0-0.25-2.08,2-2.17c0-0.29,0-0.65,0-0.65h-9.62V323.53z"/>
			<path class="st0" d="M1105.96,318.53h7.63c0,0-0.25-2.08,2-2.17c0-0.29,0-0.65,0-0.65h-9.62V318.53z"/>
			<path class="st0" d="M1105.96,313.53h7.63c0,0-0.25-2.08,2-2.17c0-0.29,0-0.65,0-0.65h-9.62V313.53z"/>
			<path class="st0" d="M1105.96,308.53h7.63c0,0-0.25-2.08,2-2.17c0-0.29,0-0.65,0-0.65h-9.62V308.53z"/>
			<path class="st0" d="M1105.96,303.53h7.63c0,0-0.25-2.08,2-2.17c0-0.29,0-0.65,0-0.65h-9.62V303.53z"/>
			<path class="st0" d="M1105.96,298.53h7.63c0,0-0.25-2.08,2-2.17c0-0.29,0-0.65,0-0.65h-9.62V298.53z"/>
			<path class="st0" d="M1105.96,293.53h7.63c0,0-0.25-2.08,2-2.17c0-0.29,0-0.65,0-0.65h-9.62V293.53z"/>
			<path class="st0" d="M1105.96,288.53h7.63c0,0-0.25-2.08,2-2.17c0-0.29,0-0.65,0-0.65h-9.62V288.53z"/>
			<path class="st0" d="M1105.96,283.53h7.63c0,0-0.25-2.08,2-2.17c0-0.29,0-0.65,0-0.65h-9.62V283.53z"/>
			<path class="st0" d="M1105.96,278.53h7.63c0,0-0.25-2.08,2-2.17c0-0.29,0-0.65,0-0.65h-9.62V278.53z"/>
			<path class="st0" d="M1105.96,273.53h7.63c0,0-0.25-2.08,2-2.17c0-0.29,0-0.65,0-0.65h-9.62V273.53z"/>
			<path class="st0" d="M1105.96,268.53h7.63c0,0-0.25-2.08,2-2.17c0-0.29,0-0.65,0-0.65h-9.62V268.53z"/>
		</g>
		<g id="pattern_3_">
			<path class="st0" d="M1105.46,444.35h7.63c0,0-0.25-2.08,2-2.17c0-0.29,0-0.65,0-0.65h-9.62V444.35z"/>
			<path class="st0" d="M1105.46,439.35h7.63c0,0-0.25-2.08,2-2.17c0-0.29,0-0.65,0-0.65h-9.62V439.35z"/>
			<path class="st0" d="M1105.46,434.35h7.63c0,0-0.25-2.08,2-2.17c0-0.29,0-0.65,0-0.65h-9.62V434.35z"/>
			<path class="st0" d="M1105.46,429.35h7.63c0,0-0.25-2.08,2-2.17c0-0.29,0-0.65,0-0.65h-9.62V429.35z"/>
			<path class="st0" d="M1105.46,424.35h7.63c0,0-0.25-2.08,2-2.17c0-0.29,0-0.65,0-0.65h-9.62V424.35z"/>
			<path class="st0" d="M1105.46,419.35h7.63c0,0-0.25-2.08,2-2.17c0-0.29,0-0.65,0-0.65h-9.62V419.35z"/>
			<path class="st0" d="M1105.46,414.35h7.63c0,0-0.25-2.08,2-2.17c0-0.29,0-0.65,0-0.65h-9.62V414.35z"/>
			<path class="st0" d="M1105.46,409.35h7.63c0,0-0.25-2.08,2-2.17c0-0.29,0-0.65,0-0.65h-9.62V409.35z"/>
			<path class="st0" d="M1105.46,404.35h7.63c0,0-0.25-2.08,2-2.17c0-0.29,0-0.65,0-0.65h-9.62V404.35z"/>
			<path class="st0" d="M1105.46,399.35h7.63c0,0-0.25-2.08,2-2.17c0-0.29,0-0.65,0-0.65h-9.62V399.35z"/>
			<path class="st0" d="M1105.46,394.35h7.63c0,0-0.25-2.08,2-2.17c0-0.29,0-0.65,0-0.65h-9.62V394.35z"/>
			<path class="st0" d="M1105.46,389.35h7.63c0,0-0.25-2.08,2-2.17c0-0.29,0-0.65,0-0.65h-9.62V389.35z"/>
			<path class="st0" d="M1105.46,384.35h7.63c0,0-0.25-2.08,2-2.17c0-0.29,0-0.65,0-0.65h-9.62V384.35z"/>
			<path class="st0" d="M1105.46,379.35h7.63c0,0-0.25-2.08,2-2.17c0-0.29,0-0.65,0-0.65h-9.62V379.35z"/>
			<path class="st0" d="M1105.46,374.35h7.63c0,0-0.25-2.08,2-2.17c0-0.29,0-0.65,0-0.65h-9.62V374.35z"/>
			<path class="st0" d="M1105.46,369.35h7.63c0,0-0.25-2.08,2-2.17c0-0.29,0-0.65,0-0.65h-9.62V369.35z"/>
			<path class="st0" d="M1105.46,364.35h7.63c0,0-0.25-2.08,2-2.17c0-0.29,0-0.65,0-0.65h-9.62V364.35z"/>
			<path class="st0" d="M1105.46,359.35h7.63c0,0-0.25-2.08,2-2.17c0-0.29,0-0.65,0-0.65h-9.62V359.35z"/>
		</g>
		<g id="pattern_5_">
			<path class="st0" d="M1253.84,353.69h7.63c0,0-0.25-2.08,2-2.17c0-0.29,0-0.65,0-0.65h-9.62V353.69z"/>
			<path class="st0" d="M1253.84,348.69h7.63c0,0-0.25-2.08,2-2.17c0-0.29,0-0.65,0-0.65h-9.62V348.69z"/>
			<path class="st0" d="M1253.84,343.69h7.63c0,0-0.25-2.08,2-2.17c0-0.29,0-0.65,0-0.65h-9.62V343.69z"/>
			<path class="st0" d="M1253.84,338.69h7.63c0,0-0.25-2.08,2-2.17c0-0.29,0-0.65,0-0.65h-9.62V338.69z"/>
			<path class="st0" d="M1253.84,333.69h7.63c0,0-0.25-2.08,2-2.17c0-0.29,0-0.65,0-0.65h-9.62V333.69z"/>
			<path class="st0" d="M1253.84,328.69h7.63c0,0-0.25-2.08,2-2.17c0-0.29,0-0.65,0-0.65h-9.62V328.69z"/>
			<path class="st0" d="M1253.84,323.69h7.63c0,0-0.25-2.08,2-2.17c0-0.29,0-0.65,0-0.65h-9.62V323.69z"/>
			<path class="st0" d="M1253.84,318.69h7.63c0,0-0.25-2.08,2-2.17c0-0.29,0-0.65,0-0.65h-9.62V318.69z"/>
			<path class="st0" d="M1253.84,313.69h7.63c0,0-0.25-2.08,2-2.17c0-0.29,0-0.65,0-0.65h-9.62V313.69z"/>
			<path class="st0" d="M1253.84,308.69h7.63c0,0-0.25-2.08,2-2.17c0-0.29,0-0.65,0-0.65h-9.62V308.69z"/>
			<path class="st0" d="M1253.84,303.69h7.63c0,0-0.25-2.08,2-2.17c0-0.29,0-0.65,0-0.65h-9.62V303.69z"/>
			<path class="st0" d="M1253.84,298.69h7.63c0,0-0.25-2.08,2-2.17c0-0.29,0-0.65,0-0.65h-9.62V298.69z"/>
			<path class="st0" d="M1253.84,293.69h7.63c0,0-0.25-2.08,2-2.17c0-0.29,0-0.65,0-0.65h-9.62V293.69z"/>
			<path class="st0" d="M1253.84,288.69h7.63c0,0-0.25-2.08,2-2.17c0-0.29,0-0.65,0-0.65h-9.62V288.69z"/>
			<path class="st0" d="M1253.84,283.69h7.63c0,0-0.25-2.08,2-2.17c0-0.29,0-0.65,0-0.65h-9.62V283.69z"/>
			<path class="st0" d="M1253.84,278.69h7.63c0,0-0.25-2.08,2-2.17c0-0.29,0-0.65,0-0.65h-9.62V278.69z"/>
			<path class="st0" d="M1253.84,273.69h7.63c0,0-0.25-2.08,2-2.17c0-0.29,0-0.65,0-0.65h-9.62V273.69z"/>
			<path class="st0" d="M1253.84,268.69h7.63c0,0-0.25-2.08,2-2.17c0-0.29,0-0.65,0-0.65h-9.62V268.69z"/>
		</g>
		<g id="pattern_4_">
			<path class="st0" d="M1253.34,444.5h7.63c0,0-0.25-2.08,2-2.17c0-0.29,0-0.65,0-0.65h-9.62V444.5z"/>
			<path class="st0" d="M1253.34,439.5h7.63c0,0-0.25-2.08,2-2.17c0-0.29,0-0.65,0-0.65h-9.62V439.5z"/>
			<path class="st0" d="M1253.34,434.5h7.63c0,0-0.25-2.08,2-2.17c0-0.29,0-0.65,0-0.65h-9.62V434.5z"/>
			<path class="st0" d="M1253.34,429.5h7.63c0,0-0.25-2.08,2-2.17c0-0.29,0-0.65,0-0.65h-9.62V429.5z"/>
			<path class="st0" d="M1253.34,424.5h7.63c0,0-0.25-2.08,2-2.17c0-0.29,0-0.65,0-0.65h-9.62V424.5z"/>
			<path class="st0" d="M1253.34,419.5h7.63c0,0-0.25-2.08,2-2.17c0-0.29,0-0.65,0-0.65h-9.62V419.5z"/>
			<path class="st0" d="M1253.34,414.5h7.63c0,0-0.25-2.08,2-2.17c0-0.29,0-0.65,0-0.65h-9.62V414.5z"/>
			<path class="st0" d="M1253.34,409.5h7.63c0,0-0.25-2.08,2-2.17c0-0.29,0-0.65,0-0.65h-9.62V409.5z"/>
			<path class="st0" d="M1253.34,404.5h7.63c0,0-0.25-2.08,2-2.17c0-0.29,0-0.65,0-0.65h-9.62V404.5z"/>
			<path class="st0" d="M1253.34,399.5h7.63c0,0-0.25-2.08,2-2.17c0-0.29,0-0.65,0-0.65h-9.62V399.5z"/>
			<path class="st0" d="M1253.34,394.5h7.63c0,0-0.25-2.08,2-2.17c0-0.29,0-0.65,0-0.65h-9.62V394.5z"/>
			<path class="st0" d="M1253.34,389.5h7.63c0,0-0.25-2.08,2-2.17c0-0.29,0-0.65,0-0.65h-9.62V389.5z"/>
			<path class="st0" d="M1253.34,384.5h7.63c0,0-0.25-2.08,2-2.17c0-0.29,0-0.65,0-0.65h-9.62V384.5z"/>
			<path class="st0" d="M1253.34,379.5h7.63c0,0-0.25-2.08,2-2.17c0-0.29,0-0.65,0-0.65h-9.62V379.5z"/>
			<path class="st0" d="M1253.34,374.5h7.63c0,0-0.25-2.08,2-2.17c0-0.29,0-0.65,0-0.65h-9.62V374.5z"/>
			<path class="st0" d="M1253.34,369.5h7.63c0,0-0.25-2.08,2-2.17c0-0.29,0-0.65,0-0.65h-9.62V369.5z"/>
			<path class="st0" d="M1253.34,364.5h7.63c0,0-0.25-2.08,2-2.17c0-0.29,0-0.65,0-0.65h-9.62V364.5z"/>
			<path class="st0" d="M1253.34,359.5h7.63c0,0-0.25-2.08,2-2.17c0-0.29,0-0.65,0-0.65h-9.62V359.5z"/>
		</g>
		<g id="pattern_6_">
			<path class="st0" d="M1253.34,534.82h7.63c0,0-0.25-2.08,2-2.17c0-0.29,0-0.65,0-0.65h-9.62V534.82z"/>
			<path class="st0" d="M1253.34,529.82h7.63c0,0-0.25-2.08,2-2.17c0-0.29,0-0.65,0-0.65h-9.62V529.82z"/>
			<path class="st0" d="M1253.34,524.82h7.63c0,0-0.25-2.08,2-2.17c0-0.29,0-0.65,0-0.65h-9.62V524.82z"/>
			<path class="st0" d="M1253.34,519.82h7.63c0,0-0.25-2.08,2-2.17c0-0.29,0-0.65,0-0.65h-9.62V519.82z"/>
			<path class="st0" d="M1253.34,514.82h7.63c0,0-0.25-2.08,2-2.17c0-0.29,0-0.65,0-0.65h-9.62V514.82z"/>
			<path class="st0" d="M1253.34,509.82h7.63c0,0-0.25-2.08,2-2.17c0-0.29,0-0.65,0-0.65h-9.62V509.82z"/>
			<path class="st0" d="M1253.34,504.82h7.63c0,0-0.25-2.08,2-2.17c0-0.29,0-0.65,0-0.65h-9.62V504.82z"/>
			<path class="st0" d="M1253.34,499.82h7.63c0,0-0.25-2.08,2-2.17c0-0.29,0-0.65,0-0.65h-9.62V499.82z"/>
			<path class="st0" d="M1253.34,494.82h7.63c0,0-0.25-2.08,2-2.17c0-0.29,0-0.65,0-0.65h-9.62V494.82z"/>
			<path class="st0" d="M1253.34,489.82h7.63c0,0-0.25-2.08,2-2.17c0-0.29,0-0.65,0-0.65h-9.62V489.82z"/>
			<path class="st0" d="M1253.34,484.82h7.63c0,0-0.25-2.08,2-2.17c0-0.29,0-0.65,0-0.65h-9.62V484.82z"/>
			<path class="st0" d="M1253.34,479.82h7.63c0,0-0.25-2.08,2-2.17c0-0.29,0-0.65,0-0.65h-9.62V479.82z"/>
			<path class="st0" d="M1253.34,474.82h7.63c0,0-0.25-2.08,2-2.17c0-0.29,0-0.65,0-0.65h-9.62V474.82z"/>
			<path class="st0" d="M1253.34,469.82h7.63c0,0-0.25-2.08,2-2.17c0-0.29,0-0.65,0-0.65h-9.62V469.82z"/>
			<path class="st0" d="M1253.34,464.82h7.63c0,0-0.25-2.08,2-2.17c0-0.29,0-0.65,0-0.65h-9.62V464.82z"/>
			<path class="st0" d="M1253.34,459.82h7.63c0,0-0.25-2.08,2-2.17c0-0.29,0-0.65,0-0.65h-9.62V459.82z"/>
			<path class="st0" d="M1253.34,454.82h7.63c0,0-0.25-2.08,2-2.17c0-0.29,0-0.65,0-0.65h-9.62V454.82z"/>
			<path class="st0" d="M1253.34,449.82h7.63c0,0-0.25-2.08,2-2.17c0-0.29,0-0.65,0-0.65h-9.62V449.82z"/>
		</g>
	</g>
	<polygon class="st0" points="1572.13,386.56 1562.79,386.56 1565.63,345.56 1568.63,345.56 	"/>
	<ellipse class="st0" cx="1567.46" cy="356.35" rx="4.17" ry="4.58"/>
	<g id="pattern_8_">
		<path class="st0" d="M1096.34,263.03h7.63c0,0-0.25-2.08,2-2.17c0-0.29,0-0.65,0-0.65h-9.62V263.03z"/>
		<path class="st0" d="M1096.34,258.03h7.63c0,0-0.25-2.08,2-2.17c0-0.29,0-0.65,0-0.65h-9.62V258.03z"/>
		<path class="st0" d="M1096.34,253.03h7.63c0,0-0.25-2.08,2-2.17c0-0.29,0-0.65,0-0.65h-9.62V253.03z"/>
		<path class="st0" d="M1096.34,248.03h7.63c0,0-0.25-2.08,2-2.17c0-0.29,0-0.65,0-0.65h-9.62V248.03z"/>
		<path class="st0" d="M1096.34,243.03h7.63c0,0-0.25-2.08,2-2.17c0-0.29,0-0.65,0-0.65h-9.62V243.03z"/>
		<path class="st0" d="M1096.34,238.03h7.63c0,0-0.25-2.08,2-2.17c0-0.29,0-0.65,0-0.65h-9.62V238.03z"/>
		<path class="st0" d="M1096.34,233.03h7.63c0,0-0.25-2.08,2-2.17c0-0.29,0-0.65,0-0.65h-9.62V233.03z"/>
		<path class="st0" d="M1096.34,228.03h7.63c0,0-0.25-2.08,2-2.17c0-0.29,0-0.65,0-0.65h-9.62V228.03z"/>
		<path class="st0" d="M1096.34,223.03h7.63c0,0-0.25-2.08,2-2.17c0-0.29,0-0.65,0-0.65h-9.62V223.03z"/>
		<path class="st0" d="M1096.34,218.03h7.63c0,0-0.25-2.08,2-2.17c0-0.29,0-0.65,0-0.65h-9.62V218.03z"/>
		<path class="st0" d="M1096.34,213.03h7.63c0,0-0.25-2.08,2-2.17c0-0.29,0-0.65,0-0.65h-9.62V213.03z"/>
		<path class="st0" d="M1096.34,208.03h7.63c0,0-0.25-2.08,2-2.17c0-0.29,0-0.65,0-0.65h-9.62V208.03z"/>
		<path class="st0" d="M1096.34,203.03h7.63c0,0-0.25-2.08,2-2.17c0-0.29,0-0.65,0-0.65h-9.62V203.03z"/>
	</g>
	<g id="pattern_9_">
		<path class="st0" d="M1010.73,196.55l-7.62,0.13c0,0,0.29,2.08-1.96,2.2c0,0.29,0.01,0.65,0.01,0.65l9.62-0.17L1010.73,196.55z"/>
		<path class="st0" d="M1010.82,201.55l-7.62,0.13c0,0,0.29,2.08-1.96,2.2c0,0.29,0.01,0.65,0.01,0.65l9.62-0.17L1010.82,201.55z"/>
		<path class="st0" d="M1010.9,206.55l-7.62,0.13c0,0,0.29,2.08-1.96,2.2c0,0.29,0.01,0.65,0.01,0.65l9.62-0.17L1010.9,206.55z"/>
		<path class="st0" d="M1010.99,211.55l-7.62,0.13c0,0,0.29,2.08-1.96,2.2c0,0.29,0.01,0.65,0.01,0.65l9.62-0.17L1010.99,211.55z"/>
		<path class="st0" d="M1011.08,216.55l-7.62,0.13c0,0,0.29,2.08-1.96,2.2c0,0.29,0.01,0.65,0.01,0.65l9.62-0.17L1011.08,216.55z"/>
		<path class="st0" d="M1011.16,221.55l-7.62,0.13c0,0,0.29,2.08-1.96,2.2c0,0.29,0.01,0.65,0.01,0.65l9.62-0.17L1011.16,221.55z"/>
		<path class="st0" d="M1011.25,226.54l-7.62,0.13c0,0,0.29,2.08-1.96,2.2c0,0.29,0.01,0.65,0.01,0.65l9.62-0.17L1011.25,226.54z"/>
		<path class="st0" d="M1011.34,231.54l-7.62,0.13c0,0,0.29,2.08-1.96,2.2c0,0.29,0.01,0.65,0.01,0.65l9.62-0.17L1011.34,231.54z"/>
		<path class="st0" d="M1011.43,236.54l-7.62,0.13c0,0,0.29,2.08-1.96,2.2c0,0.29,0.01,0.65,0.01,0.65l9.62-0.17L1011.43,236.54z"/>
		<path class="st0" d="M1011.51,241.54l-7.62,0.13c0,0,0.29,2.08-1.96,2.2c0,0.29,0.01,0.65,0.01,0.65l9.62-0.17L1011.51,241.54z"/>
		<path class="st0" d="M1011.6,246.54l-7.62,0.13c0,0,0.29,2.08-1.96,2.2c0,0.29,0.01,0.65,0.01,0.65l9.62-0.17L1011.6,246.54z"/>
		<path class="st0" d="M1011.69,251.54l-7.62,0.13c0,0,0.29,2.08-1.96,2.2c0,0.29,0.01,0.65,0.01,0.65l9.62-0.17L1011.69,251.54z"/>
		<path class="st0" d="M1011.78,256.54l-7.62,0.13c0,0,0.29,2.08-1.96,2.2c0,0.29,0.01,0.65,0.01,0.65l9.62-0.17L1011.78,256.54z"/>
	</g>
	<g>
		<path class="st0" d="M1730.58,258.6c0.16,0.32,0.67,0.61,0.87,0.92c0.39,0.61,0.79,1.2,1.14,1.82c0.18,0.31,0.4,1.07,0.69,1.29
			c0.4,0.31,0.81,0.41,1.2,0.77c0.94,0.86,1.7,2.18,2.14,3.36c0.12,0.33,0.29,0.82,0.36,1.29c0.19-0.98,1-2.16,1.32-2.67
			c0.95-1.53,1.79-3.01,3.4-3.95c1.57-0.91,3.89-1.33,5.67-1.22c1.11,0.07,2.22-0.02,3.33,0.01c0.7,0.02,1.72-0.09,2.31,0.37
			l-0.02,0.03c-0.05-0.02-0.11-0.04-0.17-0.06l-0.06,0.05c-1.5,0.09-3.04,1.06-4.34,1.77c-1.27,0.69-2.68,0.94-3.98,1.55
			c-1.53,0.72-2.8,1.77-3.81,3.13c-0.5,0.68-1.34,2.21-1.33,3.22l0.01,0.06c0.17,0.18,0.34,0.35,0.5,0.54l0,0
			c0.17,0.02,0.34,0.02,0.53-0.01c0.87-0.14,1.51-0.75,2.32-1.03l0.02,0.02c-0.45,0.66-1.17,1.16-1.93,1.45
			c0.2,0.02,0.4,0.03,0.6,0.04c0.13-0.03,0.25-0.07,0.39-0.09c0.93-0.17,1.71-0.69,2.62-0.9l0.05,0.08
			c-0.48,0.4-1.07,0.75-1.69,0.98c0.75-0.15,1.51-0.31,2.29-0.28c0.04,0,0.07,0.07,0.02,0.09c-1.04,0.47-2.1,0.9-3.13,1.37
			c-0.69,0.31-1.82,0.22-2.73,0.07c0.2,0.25,0.43,0.46,0.68,0.66c0.21,0.16,0.45,0.28,0.63,0.47l-0.02,0.03
			c-0.34-0.18-0.73-0.17-1.08-0.36c-0.31-0.17-0.57-0.43-0.8-0.7l-0.12-0.13c-0.65-0.02-1.3-0.21-1.92-0.43
			c-0.71-0.25-1.82-0.85-2.16-1.67c-0.65-0.02-1.37-0.18-1.56-0.88l-0.02-0.09c-0.05-0.03-0.09-0.05-0.13-0.08
			c-0.05-0.03-0.39-0.2-0.54-0.36l-0.07-0.01c-0.12-0.03-0.13-0.19-0.03-0.25c0.25-0.15,0.54-0.23,0.83-0.29
			c0.13-0.34,0.39-0.6,0.84-0.59c0.31,0,0.63-0.01,0.91,0.03c0-0.1,0-0.21,0-0.31c-0.06-0.49-0.17-0.96-0.29-1.47
			c-0.41-0.76-0.88-1.48-1.44-2.21c-0.55-0.72-0.63-1.62-0.86-2.47c-0.28-1.06-1.32-1.92-1.5-2.96"/>
	</g>
	<g id="pattern_10_">
		<path class="st0" d="M1247.77,261.46h7.63c0,0-0.25-2.08,2-2.17c0-0.29,0-0.65,0-0.65h-9.62V261.46z"/>
		<path class="st0" d="M1247.77,256.46h7.63c0,0-0.25-2.08,2-2.17c0-0.29,0-0.65,0-0.65h-9.62V256.46z"/>
		<path class="st0" d="M1247.77,251.46h7.63c0,0-0.25-2.08,2-2.17c0-0.29,0-0.65,0-0.65h-9.62V251.46z"/>
		<path class="st0" d="M1247.77,246.46h7.63c0,0-0.25-2.08,2-2.17c0-0.29,0-0.65,0-0.65h-9.62V246.46z"/>
		<path class="st0" d="M1247.77,241.46h7.63c0,0-0.25-2.08,2-2.17c0-0.29,0-0.65,0-0.65h-9.62V241.46z"/>
		<path class="st0" d="M1247.77,236.46h7.63c0,0-0.25-2.08,2-2.17c0-0.29,0-0.65,0-0.65h-9.62V236.46z"/>
		<path class="st0" d="M1247.77,231.46h7.63c0,0-0.25-2.08,2-2.17c0-0.29,0-0.65,0-0.65h-9.62V231.46z"/>
		<path class="st0" d="M1247.77,226.46h7.63c0,0-0.25-2.08,2-2.17c0-0.29,0-0.65,0-0.65h-9.62V226.46z"/>
		<path class="st0" d="M1247.77,221.46h7.63c0,0-0.25-2.08,2-2.17c0-0.29,0-0.65,0-0.65h-9.62V221.46z"/>
		<path class="st0" d="M1247.77,216.46h7.63c0,0-0.25-2.08,2-2.17c0-0.29,0-0.65,0-0.65h-9.62V216.46z"/>
		<path class="st0" d="M1247.77,211.46h7.63c0,0-0.25-2.08,2-2.17c0-0.29,0-0.65,0-0.65h-9.62V211.46z"/>
		<path class="st0" d="M1247.77,206.46h7.63c0,0-0.25-2.08,2-2.17c0-0.29,0-0.65,0-0.65h-9.62V206.46z"/>
		<path class="st0" d="M1247.77,201.46h7.63c0,0-0.25-2.08,2-2.17c0-0.29,0-0.65,0-0.65h-9.62V201.46z"/>
	</g>
	<g id="pattern_11_">
		<path class="st0" d="M1160.35,199.97l-7.62,0.13c0,0,0.29,2.08-1.96,2.2c0,0.29,0.01,0.65,0.01,0.65l9.62-0.17L1160.35,199.97z"/>
		<path class="st0" d="M1160.44,204.97l-7.62,0.13c0,0,0.29,2.08-1.96,2.2c0,0.29,0.01,0.65,0.01,0.65l9.62-0.17L1160.44,204.97z"/>
		<path class="st0" d="M1160.53,209.97l-7.62,0.13c0,0,0.29,2.08-1.96,2.2c0,0.29,0.01,0.65,0.01,0.65l9.62-0.17L1160.53,209.97z"/>
		<path class="st0" d="M1160.62,214.97l-7.62,0.13c0,0,0.29,2.08-1.96,2.2c0,0.29,0.01,0.65,0.01,0.65l9.62-0.17L1160.62,214.97z"/>
		<path class="st0" d="M1160.7,219.97l-7.62,0.13c0,0,0.29,2.08-1.96,2.2c0,0.29,0.01,0.65,0.01,0.65l9.62-0.17L1160.7,219.97z"/>
		<path class="st0" d="M1160.79,224.97l-7.62,0.13c0,0,0.29,2.08-1.96,2.2c0,0.29,0.01,0.65,0.01,0.65l9.62-0.17L1160.79,224.97z"/>
		<path class="st0" d="M1160.88,229.97l-7.62,0.13c0,0,0.29,2.08-1.96,2.2c0,0.29,0.01,0.65,0.01,0.65l9.62-0.17L1160.88,229.97z"/>
		<path class="st0" d="M1160.96,234.97l-7.62,0.13c0,0,0.29,2.08-1.96,2.2c0,0.29,0.01,0.65,0.01,0.65l9.62-0.17L1160.96,234.97z"/>
		<path class="st0" d="M1161.05,239.97l-7.62,0.13c0,0,0.29,2.08-1.96,2.2c0,0.29,0.01,0.65,0.01,0.65l9.62-0.17L1161.05,239.97z"/>
		<path class="st0" d="M1161.14,244.97l-7.62,0.13c0,0,0.29,2.08-1.96,2.2c0,0.29,0.01,0.65,0.01,0.65l9.62-0.17L1161.14,244.97z"/>
		<path class="st0" d="M1161.23,249.97l-7.62,0.13c0,0,0.29,2.08-1.96,2.2c0,0.29,0.01,0.65,0.01,0.65l9.62-0.17L1161.23,249.97z"/>
		<path class="st0" d="M1161.31,254.97l-7.62,0.13c0,0,0.29,2.08-1.96,2.2c0,0.29,0.01,0.65,0.01,0.65l9.62-0.17L1161.31,254.97z"/>
		<path class="st0" d="M1161.4,259.97l-7.62,0.13c0,0,0.29,2.08-1.96,2.2c0,0.29,0.01,0.65,0.01,0.65l9.62-0.17L1161.4,259.97z"/>
	</g>
	<polygon class="st0" points="1659.48,304.72 1673.09,259.89 1674.29,260.72 1660.37,305.04 	"/>
	<path class="st0" d="M1670.21,270.66c-2.43-2.8-8.76-3.32-8.76-3.32s1.14-4.3-0.3-7.04c5.88-0.81,11.74,3.17,11.74,3.17
		L1670.21,270.66z"/>
	<path class="st0" d="M1525.09,276.76c0-0.07,0.02-0.14,0.02-0.21c0-2.22-1.8-4.01-4.01-4.01c-1.13,0-2.14,0.47-2.87,1.21
		c-0.88-3.27-3.86-5.68-7.41-5.68c-2.91,0-5.44,1.62-6.75,4.01c-0.38-0.09-0.78-0.16-1.19-0.16c-0.9,0-1.73,0.26-2.46,0.67
		c-1.09-3.09-4.03-5.32-7.5-5.32c-3.75,0-6.88,2.59-7.73,6.08c-1.41,0.64-2.54,1.77-3.19,3.17c-0.36-0.06-0.72-0.11-1.1-0.11
		c-0.94,0-1.83,0.21-2.64,0.58c-1.13-3.02-4.03-5.18-7.45-5.18c-4.4,0-7.96,3.56-7.96,7.96c0,0.48,0.05,0.95,0.13,1.41
		c-3.03,0.53-5.34,3.15-5.34,6.34c0,3.56,2.89,6.45,6.45,6.45l0.04,0v0h16.36c0.69,0.31,1.45,0.5,2.26,0.5v0h20.71v-0.03
		c2.35-0.16,4.24-1.92,4.58-4.22h15.7c3.76,0,6.8-3.05,6.8-6.8C1530.56,280.13,1528.21,277.38,1525.09,276.76z"/>
	<path class="st0" d="M661.15,167.66c0-0.07,0.02-0.13,0.02-0.2c0-2.15-1.8-3.9-4.01-3.9c-1.13,0-2.14,0.45-2.87,1.18
		c-0.88-3.18-3.86-5.52-7.41-5.52c-2.91,0-5.44,1.58-6.75,3.9c-0.38-0.09-0.78-0.15-1.19-0.15c-0.9,0-1.73,0.25-2.46,0.65
		c-1.09-3.01-4.03-5.17-7.5-5.17c-3.75,0-6.88,2.52-7.73,5.91c-1.41,0.62-2.54,1.72-3.19,3.08c-0.36-0.06-0.72-0.11-1.1-0.11
		c-0.94,0-1.83,0.21-2.64,0.56c-1.13-2.94-4.03-5.03-7.45-5.03c-4.4,0-7.96,3.46-7.96,7.74c0,0.47,0.05,0.93,0.13,1.37
		c-3.03,0.51-5.34,3.07-5.34,6.16c0,3.46,2.89,6.27,6.45,6.27l0.04,0v0h16.36c0.69,0.3,1.45,0.48,2.26,0.49v0h20.71v-0.03
		c2.35-0.15,4.24-1.87,4.58-4.1h15.7c3.76,0,6.8-2.96,6.8-6.61C666.61,170.94,664.26,168.27,661.15,167.66z"/>
	<g>
		<path class="st0" d="M759.51,122.86c0.31,0.62,1.3,1.18,1.69,1.79c0.75,1.18,1.52,2.32,2.21,3.54c0.34,0.6,0.78,2.07,1.34,2.5
			c0.78,0.6,1.57,0.79,2.34,1.49c1.82,1.67,3.3,4.23,4.15,6.53c0.24,0.64,0.57,1.58,0.7,2.51c0.37-1.9,1.95-4.18,2.56-5.18
			c1.85-2.98,3.46-5.84,6.59-7.65c3.04-1.76,7.54-2.59,11-2.36c2.15,0.14,4.31-0.05,6.46,0.02c1.36,0.04,3.34-0.18,4.49,0.72
			l-0.03,0.05c-0.11-0.04-0.22-0.07-0.33-0.11l-0.11,0.1c-2.91,0.18-5.9,2.06-8.42,3.43c-2.46,1.34-5.2,1.82-7.72,3.01
			c-2.97,1.4-5.44,3.43-7.38,6.06c-0.97,1.32-2.6,4.29-2.57,6.25l0.03,0.11c0.33,0.34,0.66,0.69,0.97,1.05l0.01,0.01
			c0.32,0.05,0.66,0.05,1.02-0.01c1.68-0.28,2.92-1.46,4.49-2l0.04,0.05c-0.87,1.28-2.26,2.25-3.75,2.81
			c0.38,0.04,0.77,0.06,1.16,0.08c0.25-0.07,0.49-0.13,0.75-0.17c1.81-0.32,3.31-1.34,5.08-1.75l0.09,0.16
			c-0.94,0.79-2.08,1.45-3.27,1.89c1.46-0.3,2.93-0.6,4.45-0.54c0.09,0,0.14,0.13,0.05,0.18c-2.02,0.9-4.07,1.75-6.07,2.67
			c-1.33,0.61-3.53,0.43-5.3,0.13c0.38,0.48,0.83,0.9,1.31,1.27c0.4,0.31,0.88,0.54,1.22,0.91l-0.04,0.05
			c-0.66-0.34-1.41-0.33-2.09-0.71c-0.6-0.33-1.11-0.84-1.55-1.35l-0.23-0.25c-1.27-0.04-2.52-0.42-3.72-0.83
			c-1.37-0.48-3.53-1.66-4.19-3.23c-1.26-0.04-2.66-0.34-3.03-1.71l-0.04-0.18c-0.09-0.05-0.18-0.11-0.26-0.15
			c-0.1-0.05-0.76-0.39-1.06-0.69l-0.13-0.02c-0.22-0.06-0.25-0.36-0.06-0.48c0.48-0.29,1.05-0.44,1.61-0.56
			c0.24-0.66,0.75-1.16,1.62-1.15c0.61,0.01,1.23-0.03,1.76,0.06c0-0.2,0-0.41-0.01-0.61c-0.12-0.95-0.33-1.87-0.56-2.85
			c-0.79-1.48-1.71-2.87-2.8-4.28c-1.07-1.4-1.23-3.14-1.66-4.8c-0.54-2.05-2.56-3.72-2.92-5.74"/>
	</g>
	<path class="st0" d="M106.37,252.5c0-0.07,0.02-0.14,0.02-0.22c0-2.32-1.88-4.2-4.2-4.2c-1.18,0-2.24,0.49-3,1.27
		c-0.92-3.43-4.04-5.95-7.76-5.95c-3.05,0-5.7,1.7-7.07,4.2c-0.4-0.1-0.81-0.16-1.24-0.16c-0.94,0-1.81,0.27-2.58,0.71
		c-1.14-3.24-4.22-5.57-7.86-5.57c-3.92,0-7.2,2.71-8.09,6.36c-1.47,0.67-2.66,1.85-3.34,3.32c-0.38-0.07-0.76-0.12-1.15-0.12
		c-0.99,0-1.92,0.22-2.76,0.6c-1.18-3.16-4.23-5.42-7.8-5.42c-4.61,0-8.34,3.73-8.34,8.34c0,0.5,0.05,1,0.14,1.48
		c-3.18,0.55-5.6,3.3-5.6,6.64c0,3.73,3.02,6.76,6.76,6.76l0.05,0v0h17.13c0.72,0.33,1.52,0.52,2.37,0.53v0h21.69v-0.03
		c2.46-0.16,4.44-2.01,4.8-4.42h16.44c3.93,0,7.12-3.19,7.12-7.13C112.09,256.02,109.63,253.15,106.37,252.5z"/>
	<rect x="837.96" y="295.72" class="st1" width="6" height="10"/>
	<rect x="837.96" y="312.22" class="st1" width="6" height="10"/>
	<rect x="837.96" y="329.39" class="st1" width="6" height="10"/>
	<rect x="837.96" y="347.13" class="st1" width="6" height="10"/>
	<rect x="452.74" y="260.56" class="st1" width="1.44" height="126.67"/>
	<rect x="339.74" y="260.56" class="st1" width="1.44" height="126.67"/>
	<polygon class="st0" points="121.67,351.6 121.67,350.05 122.98,350.03 122.98,348.35 123.92,348.35 123.92,349.97 125.38,349.97 
		125.38,351.6 	"/>
	<polygon class="st0" points="133.5,351.6 133.5,350.05 134.82,350.03 134.82,348.35 135.75,348.35 135.75,349.97 137.21,349.97 
		137.21,351.6 	"/>
	<polygon class="st0" points="144.84,351.6 144.84,350.05 146.15,350.03 146.15,348.35 147.09,348.35 147.09,349.97 148.54,349.97 
		148.54,351.6 	"/>
	<polygon class="st0" points="155.67,351.6 155.67,350.05 156.98,350.03 156.98,348.35 157.92,348.35 157.92,349.97 159.38,349.97 
		159.38,351.6 	"/>
	<polygon class="st0" points="166.79,351.6 166.79,350.05 168.11,350.03 168.11,348.35 169.04,348.35 169.04,349.97 170.5,349.97 
		170.5,351.6 	"/>
	<path class="st0" d="M565.34,312.89c0,0,13.96,2.33,24.13,0c-2,8.17,0,15.67,0,15.67s-19.08-1.33-24.13,0
		C565.06,321.07,565.34,312.89,565.34,312.89z"/>
	<path class="st1" d="M578.38,321.1c0,1.22-0.99,2.21-2.21,2.21c-1.22,0-2.21-0.99-2.21-2.21c0-1.22,0.99-2.21,2.21-2.21
		C577.39,318.89,578.38,319.88,578.38,321.1z"/>
	<rect x="1028.46" y="268.53" class="st1" width="58" height="2.34"/>
	<rect x="1176.88" y="269.71" class="st1" width="58" height="2.34"/>
	<path class="st1" d="M1502.34,429.28h-8.25v-13.59c0,0,1-3.39,4.13-3.39c3.44,0,4.13,3.39,4.13,3.39V429.28z"/>
	<path class="st1" d="M1525.34,429.28h-8.25v-13.59c0,0,1-3.39,4.13-3.39c3.44,0,4.13,3.39,4.13,3.39V429.28z"/>
	<path class="st1" d="M1548.34,429.28h-8.25v-13.59c0,0,1-3.39,4.13-3.39c3.44,0,4.13,3.39,4.13,3.39V429.28z"/>
	<path class="st1" d="M1601.09,429.28h-8.25v-13.59c0,0,1-3.39,4.13-3.39c3.44,0,4.13,3.39,4.13,3.39V429.28z"/>
	<path class="st1" d="M1624.09,429.28h-8.25v-13.59c0,0,1-3.39,4.13-3.39c3.44,0,4.13,3.39,4.13,3.39V429.28z"/>
	<path class="st1" d="M1647.09,429.28h-8.25v-13.59c0,0,1-3.39,4.13-3.39c3.44,0,4.13,3.39,4.13,3.39V429.28z"/>
	<rect x="881.34" y="200.31" class="st1" width="23.92" height="7.5"/>
	<rect x="913.23" y="200.31" class="st1" width="6.46" height="7.5"/>
	<rect x="886.84" y="249.52" class="st1" width="6.46" height="7.5"/>
	<rect x="886.84" y="265.94" class="st1" width="6.46" height="7.5"/>
	<rect x="1316.46" y="316.89" class="st1" width="6" height="33.59"/>
	<path class="st1" d="M181.71,412.59l0.01-0.07l-0.01-0.07v-0.18h-0.03c-0.18-2.08-2.58-3.73-5.53-3.73c-2.95,0-5.34,1.65-5.53,3.73
		h-0.05v0.48v10v0.48h11.13v-0.48v-9.67l0.01-0.07l-0.01-0.07v-0.18V412.59z"/>
	<path class="st1" d="M232.51,412.24l0.01-0.07l-0.01-0.07v-0.18h-0.03c-0.18-2.08-2.58-3.73-5.53-3.73c-2.95,0-5.34,1.65-5.53,3.73
		h-0.05v0.48v10v0.48h11.13v-0.48v-9.67l0.01-0.07l-0.01-0.07v-0.18V412.24z"/>
	<path class="st1" d="M208.71,412.24l0.01-0.07l-0.01-0.07v-0.18h-0.03c-0.18-2.08-2.58-3.73-5.53-3.73c-2.95,0-5.34,1.65-5.53,3.73
		h-0.05v0.48v10v0.48h11.13v-0.48v-9.67l0.01-0.07l-0.01-0.07v-0.18V412.24z"/>
	<path class="st1" d="M269.71,412.59l0.01-0.07l-0.01-0.07v-0.18h-0.03c-0.18-2.08-2.58-3.73-5.53-3.73c-2.95,0-5.34,1.65-5.53,3.73
		h-0.05v0.48v10v0.48h11.13v-0.48v-9.67l0.01-0.07l-0.01-0.07v-0.18V412.59z"/>
	<path class="st1" d="M320.51,412.24l0.01-0.07l-0.01-0.07v-0.18h-0.03c-0.18-2.08-2.58-3.73-5.53-3.73c-2.95,0-5.34,1.65-5.53,3.73
		h-0.05v0.48v10v0.48h11.13v-0.48v-9.67l0.01-0.07l-0.01-0.07v-0.18V412.24z"/>
	<path class="st1" d="M296.71,412.24l0.01-0.07l-0.01-0.07v-0.18h-0.03c-0.18-2.08-2.58-3.73-5.53-3.73c-2.95,0-5.34,1.65-5.53,3.73
		h-0.05v0.48v10v0.48h11.13v-0.48v-9.67l0.01-0.07l-0.01-0.07v-0.18V412.24z"/>
	<line class="st2" x1="576.17" y1="318.89" x2="576.17" y2="323.31"/>
	<line class="st2" x1="578.38" y1="321.1" x2="573.96" y2="321.1"/>
	<line class="st2" x1="577.49" y1="319.33" x2="574.84" y2="322.86"/>
	<line class="st2" x1="574.65" y1="319.5" x2="577.69" y2="322.71"/>
	<rect x="1025.23" y="122.39" class="st1" width="6.46" height="7.5"/>
	<rect x="1025.23" y="134.06" class="st1" width="6.46" height="7.5"/>
	<rect x="1234.88" y="157.43" class="st1" width="6" height="33.59"/>
	<rect x="440.54" y="260.56" class="st1" width="8.59" height="19.88"/>
	<path class="st0" d="M38.69,359.72c0,0.53-0.43,0.96-0.96,0.96c-0.53,0-0.96-0.43-0.96-0.96c0-0.53,0.43-0.96,0.96-0.96
		C38.26,358.76,38.69,359.19,38.69,359.72z"/>
</g>
<g id="Layer_3">
	<path class="st1" d="M545.13,480.89h40.67v-33.33h-2c0,0,0.5-29.17-18.33-29.17s-18.17,28.67-18.17,28.67l-2.17,0.33V480.89z"/>
	<circle class="st1" cx="738.96" cy="322.47" r="8"/>
	<circle class="st0" cx="739.02" cy="322.53" r="0.5"/>
	<polygon class="st0" points="738.83,322.26 738.25,318.52 738.82,317.21 739.41,318.57 739.14,322.26 	"/>
	<polygon class="st0" points="738.96,322.82 741.09,328.25 741.73,328.68 741.65,327.93 739.2,322.82 	"/>
</g>
</svg>
