<svg xmlns="http://www.w3.org/2000/svg" width="26.882" height="43.628" viewBox="0 0 26.882 43.628"><defs><style>.a{fill:#878787;}</style></defs><g transform="translate(-98.257)"><path class="a" d="M121.955,0H101.442a3.189,3.189,0,0,0-3.185,3.185V23.7a3.189,3.189,0,0,0,3.185,3.185h5.651V28.63a1.665,1.665,0,0,0,1.663,1.663h.062v1.584a.64.64,0,0,0,1.279,0V30.294h3.2V42.348h-3.2V34.819a.64.64,0,1,0-1.279,0v8.169a.64.64,0,0,0,.64.64h4.48a.64.64,0,0,0,.64-.64V30.293h.062A1.665,1.665,0,0,0,116.3,28.63V26.883h2.331a.64.64,0,0,0,0-1.279H101.442A1.908,1.908,0,0,1,99.536,23.7V3.185a1.908,1.908,0,0,1,1.906-1.906h20.513a1.908,1.908,0,0,1,1.906,1.906V23.7a1.908,1.908,0,0,1-1.906,1.906h-.322a.64.64,0,1,0,0,1.279h.322a3.189,3.189,0,0,0,3.185-3.185V3.185A3.188,3.188,0,0,0,121.955,0ZM108.372,26.883h6.652V28.63a.384.384,0,0,1-.384.384h-5.884a.384.384,0,0,1-.384-.384Z"/><path class="a" d="M133.83,34.929H135.2a.64.64,0,1,0,0-1.279H133.83a1.926,1.926,0,0,0-1.924,1.924v17.3A1.926,1.926,0,0,0,133.83,54.8h17.3a1.926,1.926,0,0,0,1.924-1.924v-17.3a1.926,1.926,0,0,0-1.924-1.924H138.173a.64.64,0,1,0,0,1.279H151.13a.645.645,0,0,1,.644.644v17.3a.645.645,0,0,1-.644.644h-17.3a.645.645,0,0,1-.644-.644v-17.3A.645.645,0,0,1,133.83,34.929Z" transform="translate(-30.782 -30.783)"/><path class="a" d="M216.507,100.363V96.154h2.113c2.147,0,3.834-1.04,3.834-3.766v-.136c0-2.744-1.636-3.749-3.732-3.749H215.4a.631.631,0,0,0-.7.579v11.281c0,.392.46.6.9.6C216.064,100.959,216.507,100.755,216.507,100.363Zm0-10.259h2.113c1.261,0,2.028.7,2.028,2.2v.2c0,1.5-.767,2.215-2.028,2.215h-2.113Z" transform="translate(-106.522 -80.961)"/></g></svg>