<svg xmlns="http://www.w3.org/2000/svg" width="38.357" height="38.498" viewBox="0 0 38.357 38.498"><defs><style>.a{fill:#00bbdc;}</style></defs><g transform="translate(0 0.001)"><path class="a" d="M.629,38.5H28.577a.675.675,0,0,0,.631-.711V23.338l8.948-8.949a.669.669,0,0,0,.009-.946L34.6,9.878a.69.69,0,0,0-.963,0l-4.433,4.407v-6.8a.652.652,0,0,0-.177-.474L22.266.216A.664.664,0,0,0,21.8,0H.629A.673.673,0,0,0,0,.711V37.786a.673.673,0,0,0,.629.711ZM22,23.986l2.063,2.063-3.1,1.036Zm3.3,1.407-2.645-2.645,8.5-8.477L33.781,16.9Zm8.831-14.1,2.62,2.62L34.727,15.95,32.1,13.326ZM22.513,2.327l4.448,4.452H22.513ZM1.339,1.339H21.174V7.486a.6.6,0,0,0,.628.632h6.068v7.5L21.22,22.273a.6.6,0,0,0-.152.247l-.944,2.838H5.666a.67.67,0,1,0,0,1.339h14.01l-.4,1.222a.656.656,0,0,0,.161.678c.047.047.1.109.157.109H5.666a.67.67,0,1,0,0,1.339H23.492a.67.67,0,0,0,0-1.339H20.254l5.263-1.745a.587.587,0,0,0,.243-.154l2.109-2.126V37.158H1.339Zm0,0"/><path class="a" d="M78.195,383H60.369a.67.67,0,0,0,0,1.339H78.195a.67.67,0,0,0,0-1.339Zm0,0" transform="translate(-54.703 -350.947)"/><path class="a" d="M60.369,264.339h9.457a.67.67,0,0,0,0-1.339H60.369a.67.67,0,1,0,0,1.339Zm0,0" transform="translate(-54.703 -240.99)"/></g></svg>