<svg xmlns="http://www.w3.org/2000/svg" width="7.207" height="11.301" viewBox="0 0 7.207 11.301"><defs><style>.a{fill:#1c1b1b;}</style></defs><g transform="translate(-72.806)"><path class="a" d="M79.941,2.56a.25.25,0,0,0-.184-.072H78.384a2.778,2.778,0,0,0-.514-1.156h1.87A.247.247,0,0,0,80,1.076V.257A.247.247,0,0,0,79.74,0H73.063a.247.247,0,0,0-.257.257V1.324a.26.26,0,0,0,.257.257h1.164q1.693,0,2.151.907H73.063a.247.247,0,0,0-.257.257v.819a.247.247,0,0,0,.257.257H76.49a1.568,1.568,0,0,1-.823,1,3.622,3.622,0,0,1-1.706.345h-.9a.26.26,0,0,0-.257.257V6.445a.24.24,0,0,0,.072.177q1.541,1.637,4,4.583a.237.237,0,0,0,.2.1h1.565a.233.233,0,0,0,.233-.145.219.219,0,0,0-.032-.273Q76.5,8.01,75.158,6.581A4.07,4.07,0,0,0,77.373,5.7,3,3,0,0,0,78.408,3.82h1.348a.247.247,0,0,0,.257-.257V2.745A.25.25,0,0,0,79.941,2.56Z" transform="translate(0 0)"/></g></svg>