<svg xmlns="http://www.w3.org/2000/svg" width="26.618" height="38.498" viewBox="0 0 26.618 38.498"><defs><style>.a{fill:#878787;}</style></defs><g transform="translate(-19.75)"><path class="a" d="M43.435,4.967H38.914V.525A.526.526,0,0,0,38.388,0H27.73A.526.526,0,0,0,27.2.526v4.44H22.682A2.936,2.936,0,0,0,19.75,7.9V35.564A2.936,2.936,0,0,0,22.682,38.5H43.435a2.936,2.936,0,0,0,2.932-2.932V7.9A2.936,2.936,0,0,0,43.435,4.967ZM27.73,9.027H42.307v25.41H23.81V9.027Zm.526-7.974h9.606V7.974H28.256ZM45.315,35.564a1.882,1.882,0,0,1-1.88,1.88H22.682a1.882,1.882,0,0,1-1.88-1.88V7.9a1.882,1.882,0,0,1,1.88-1.88H27.2V7.974H23.284a.526.526,0,0,0-.526.526V34.963a.526.526,0,0,0,.526.528h19.55a.526.526,0,0,0,.526-.526V8.5a.526.526,0,0,0-.526-.526H38.914V6.019h4.521a1.882,1.882,0,0,1,1.88,1.88Z" transform="translate(0 0)"/><path class="a" d="M41.4,49.064a.527.527,0,0,0,.74-.06l2.933-3.417a.526.526,0,1,0-.8-.684l-2.593,3.02-1.067-.9a.526.526,0,0,0-.68.8Z" transform="translate(-13.984 -31.254)"/><path class="a" d="M62.776,47.574h6.767a.526.526,0,0,0,0-1.053H62.776a.526.526,0,0,0,0,1.053Z" transform="translate(-29.718 -32.529)"/><path class="a" d="M62.776,55.435h4.587a.526.526,0,1,0,0-1.053H62.776a.526.526,0,0,0,0,1.053Z" transform="translate(-29.718 -38.026)"/><path class="a" d="M41.4,69.168a.526.526,0,0,0,.74-.06l2.933-3.416a.526.526,0,1,0-.8-.686l-2.592,3.021-1.067-.9a.526.526,0,0,0-.68.8Z" transform="translate(-13.984 -45.326)"/><path class="a" d="M62.776,67.627h6.767a.526.526,0,0,0,0-1.053H62.776a.526.526,0,0,0,0,1.053Z" transform="translate(-29.718 -46.551)"/><path class="a" d="M62.776,75.488h4.587a.526.526,0,1,0,0-1.053H62.776a.526.526,0,1,0,0,1.053Z" transform="translate(-29.718 -52.048)"/><path class="a" d="M41.4,89.221a.527.527,0,0,0,.74-.06l2.933-3.416a.526.526,0,1,0-.8-.686l-2.592,3.021-1.067-.9a.526.526,0,1,0-.68.8Z" transform="translate(-13.985 -59.347)"/><path class="a" d="M62.776,87.681h6.767a.526.526,0,1,0,0-1.053H62.776a.526.526,0,0,0,0,1.053Z" transform="translate(-29.718 -60.573)"/><path class="a" d="M62.776,95.542h4.587a.526.526,0,1,0,0-1.053H62.776a.526.526,0,0,0,0,1.053Z" transform="translate(-29.718 -66.07)"/></g></svg>