<svg xmlns="http://www.w3.org/2000/svg" width="31.431" height="31.327" viewBox="0 0 31.431 31.327"><defs><style>.a{fill:#00bbdc;}</style></defs><g transform="translate(0 0)"><g transform="translate(0 0)"><path class="a" d="M15.663,29.566H3.916a1.306,1.306,0,0,1-1.305-1.305V4.766A1.306,1.306,0,0,1,3.916,3.461H15.663a1.305,1.305,0,0,0,0-2.611H3.916A3.921,3.921,0,0,0,0,4.766v23.5a3.921,3.921,0,0,0,3.916,3.916H15.663a1.305,1.305,0,1,0,0-2.611Z" transform="translate(0 -0.85)"/></g><g transform="translate(10.442 6.527)"><path class="a" d="M190.7,115.372l-7.936-7.832a1.305,1.305,0,0,0-1.833,1.859L186.6,115h-15.2a1.305,1.305,0,0,0,0,2.611h15.2l-5.671,5.6a1.305,1.305,0,1,0,1.833,1.859l7.936-7.832a1.3,1.3,0,0,0,0-1.859Z" transform="translate(-170.1 -107.165)"/></g></g></svg>