<svg xmlns="http://www.w3.org/2000/svg" width="40.847" height="28.721" viewBox="0 0 40.847 28.721"><g transform="translate(0.001 0)"><path d="M34.864,16.754a5.907,5.907,0,0,0-2.71.679l-1.617-1.922a7.983,7.983,0,0,1,2.313-.933,9.744,9.744,0,0,1,2.022-.216,3.417,3.417,0,0,0,2.426-1,3.758,3.758,0,0,0,1.078-2.736A10.718,10.718,0,0,0,27.759,0H26.407a1.2,1.2,0,1,0,0,2.393h1.352A8.081,8.081,0,0,1,28.8,2.5V4.812a5.935,5.935,0,0,0-1.969.566c-.008-.009-.018-.015-.025-.024a5.968,5.968,0,0,0-2.442,2.1L21.64,11.537a1.2,1.2,0,0,1-.815.519A7.545,7.545,0,0,0,15.2,16.228a9.519,9.519,0,0,1,1.634,5.313H14.36a7.286,7.286,0,1,0-.441,2.393H25.21a1.2,1.2,0,0,0,1.2-1.2,8.978,8.978,0,0,1,.235-2.017,8.167,8.167,0,0,1,2.028-3.708l1.615,1.919a5.925,5.925,0,0,0-1.405,3.806,5.984,5.984,0,1,0,5.984-5.984ZM7.18,26.328a4.787,4.787,0,1,1,4.787-4.787H8.377a1.2,1.2,0,0,1-1.2-1.2,1.2,1.2,0,0,0-2.393,0,3.594,3.594,0,0,0,3.59,3.59H11.3A4.77,4.77,0,0,1,7.18,26.328Zm27.684,0a3.594,3.594,0,0,1-3.59-3.59,3.557,3.557,0,0,1,.548-1.885l2.107,2.633a1.2,1.2,0,1,0,1.87-1.5l-2.1-2.63a3.544,3.544,0,0,1,1.169-.212,3.59,3.59,0,1,1,0,7.18Zm0,0" transform="translate(0)"/><path d="M175.426,36.806l2.05-3.076a8.34,8.34,0,0,1,2.491-2.4A8.3,8.3,0,0,0,175.527,30a8.4,8.4,0,0,0-6.977,3.753l1.914,1.149A15.97,15.97,0,0,0,175.426,36.806Zm0,0" transform="translate(-155.104 -27.607)"/><path d="M14.129,64.56,6.45,60H1.2A1.2,1.2,0,0,0,0,61.2,5.991,5.991,0,0,0,5.983,67.18c2.394,0,4.877.052,7.537,2.365.01-.019.01-.041.022-.059a9.917,9.917,0,0,1,3.742-3.464,18.346,18.346,0,0,1-3.155-1.463Zm0,0" transform="translate(0 -55.213)"/></g></svg>