<svg xmlns="http://www.w3.org/2000/svg" width="46.828" height="78.047" viewBox="0 0 46.828 78.047"><defs><style>.a{fill:#f5cbaa;}.b{fill:#e74444;}.c{fill:#6a7073;}.d{fill:#d9dbdd;}.e{fill:#ffc477;}</style></defs><path class="a" d="M304,328h3.9v5.2H304Z" transform="translate(-272.781 -277.269)"/><rect class="b" width="33.653" height="54.806" rx="1" transform="translate(1.448 1.452)"/><path class="c" d="M232,24h7.8V78.633H232Z" transform="translate(-212.488 -22.699)"/><path class="d" d="M168,56h5.2V80.715H168Z" transform="translate(-158.894 -49.496)"/><path class="e" d="M230.19,191.261v28.77h-9.105a13.008,13.008,0,0,1-13.008-13.008h.026l-8.439-12.488a5.2,5.2,0,1,1,8.623-5.826l7.595,10.51h3.9V168l9.794,20.813A5.2,5.2,0,0,1,230.19,191.261Z" transform="translate(-184.663 -143.285)"/><path d="M115.9,73.235h13.573l4.642,6.87a14.325,14.325,0,0,0,14.3,13.942h9.105a1.3,1.3,0,0,0,1.3-1.3V63.976a6.528,6.528,0,0,0-.749-3.03l-9.657-20.522V19.9a3.907,3.907,0,0,0-3.9-3.9H115.9a3.907,3.907,0,0,0-3.9,3.9v49.43a3.907,3.907,0,0,0,3.9,3.9ZM155.768,62.14a3.918,3.918,0,0,1,.459,1.836V91.446h-7.8a11.721,11.721,0,0,1-11.7-11.461,1.3,1.3,0,0,0-.2-.975l-8.437-12.488a3.9,3.9,0,1,1,6.467-4.369l.023.034,7.594,10.51a1.3,1.3,0,0,0,1.053.539h3.9a1.3,1.3,0,0,0,1.3-1.3v-25.4l7.317,15.547C155.748,62.1,155.757,62.12,155.768,62.14ZM136.69,60.678a6.479,6.479,0,0,0-3.878-2.667V18.6h5.2V62.512ZM145.82,19.9V70.633h-1.937l-3.266-4.52V18.6h3.9A1.3,1.3,0,0,1,145.82,19.9Zm-31.219,0a1.3,1.3,0,0,1,1.3-1.3h14.309V57.93a6.5,6.5,0,0,0-4.287,10.049l1.794,2.655H115.9a1.3,1.3,0,0,1-1.3-1.3Z" transform="translate(-112 -16)"/><path d="M161.3,75.316h5.2a1.3,1.3,0,0,0,1.3-1.3V49.3a1.3,1.3,0,0,0-1.3-1.3h-5.2a1.3,1.3,0,0,0-1.3,1.3V74.016A1.3,1.3,0,0,0,161.3,75.316ZM162.6,50.6h2.6V72.715h-2.6Z" transform="translate(-152.195 -42.797)"/></svg>