<svg xmlns="http://www.w3.org/2000/svg" width="40.099" height="40.084" viewBox="0 0 40.099 40.084"><defs><style>.a{fill:#878787;}</style></defs><g transform="translate(-0.001 -0.098)"><path class="a" d="M23.564,155.617a2.048,2.048,0,0,0-2.893,0l-2.177,2.177a.569.569,0,0,1-.8,0l-7.31-7.31a.569.569,0,0,1,0-.8l2.177-2.177a2.047,2.047,0,0,0,0-2.893l-5.092-5.093a2.048,2.048,0,0,0-2.893,0l-3.409,3.409c-1.086,1.086-1.963,3.29.02,7.624a34.6,34.6,0,0,0,6.961,9.478,34.237,34.237,0,0,0,9.5,6.94,11.312,11.312,0,0,0,4.539,1.164,4.165,4.165,0,0,0,3.059-1.122l3.409-3.409a2.048,2.048,0,0,0,0-2.893Zm.023,9.733a1.92,1.92,0,0,1-1.388.437c-2.459,0-7.266-2.292-12.393-7.418a32.231,32.231,0,0,1-6.486-8.795c-1.078-2.355-1.263-4.218-.5-4.986l3.194-3.194,4.664,4.664L8.72,148.019a2.92,2.92,0,0,0,0,4.125l7.31,7.31a2.92,2.92,0,0,0,4.125,0l1.962-1.962,4.664,4.663Z" transform="translate(0 -127.952)"/><path class="a" d="M213.51.1a12.168,12.168,0,0,0-10.341,18.578l-1.752,4.741a1.174,1.174,0,0,0,1.509,1.509l5-1.849A12.167,12.167,0,1,0,213.51.1Zm0,21.984a9.81,9.81,0,0,1-4.9-1.309,1.175,1.175,0,0,0-.995-.085l-3.11,1.149,1.073-2.9a1.174,1.174,0,0,0-.137-1.077,9.818,9.818,0,1,1,8.07,4.226Z" transform="translate(-185.577 0)"/><path class="a" d="M288.939,66.55a4.463,4.463,0,1,0-6.621,0,6.027,6.027,0,0,0-2.719,5.036,1.175,1.175,0,1,0,2.349,0,3.686,3.686,0,0,1,3-3.616,4.488,4.488,0,0,0,1.367,0,3.686,3.686,0,0,1,3,3.616,1.175,1.175,0,1,0,2.349,0A6.028,6.028,0,0,0,288.939,66.55Zm-3.311-5.1a2.114,2.114,0,1,1-2.114,2.114A2.117,2.117,0,0,1,285.628,61.446Z" transform="translate(-257.705 -54.379)"/></g></svg>