<svg xmlns="http://www.w3.org/2000/svg" width="44.653" height="38.875" viewBox="0 0 44.653 38.875"><defs><style>.a{fill:#878787;}</style></defs><g transform="translate(0 -33.126)"><path class="a" d="M44.529,68.594l-.006-.017L42.75,63.187V49.99a3.929,3.929,0,0,0-3.925-3.924H24.753V37.05a3.929,3.929,0,0,0-3.925-3.925h-15A3.929,3.929,0,0,0,1.9,37.05V50.335L.13,55.725l-.006.018a2.586,2.586,0,0,0,.938,2.884,2.585,2.585,0,0,0,3.025.066l3.427-2.281H19.9v8.928a3.929,3.929,0,0,0,3.925,3.925H37.139l3.427,2.28a2.586,2.586,0,0,0,3.026-.066A2.586,2.586,0,0,0,44.529,68.594ZM7.119,53.8a1.308,1.308,0,0,0-.725.219l-3.762,2.5-.012.008,1.833-5.571a1.308,1.308,0,0,0,.066-.409V37.05a1.31,1.31,0,0,1,1.308-1.308h15a1.31,1.31,0,0,1,1.308,1.308V52.487A1.31,1.31,0,0,1,20.828,53.8ZM42.032,69.377l-.012-.008-3.761-2.5a1.308,1.308,0,0,0-.725-.219H23.825a1.31,1.31,0,0,1-1.308-1.308v-9.31a3.929,3.929,0,0,0,2.236-3.542V48.682H38.825a1.31,1.31,0,0,1,1.308,1.308V63.4a1.308,1.308,0,0,0,.066.409l1.834,5.572Z" transform="translate(0)"/><path class="a" d="M90.72,107.5a6.111,6.111,0,1,0-1.834,1.867l.573.573a1.308,1.308,0,1,0,1.85-1.85Zm-5.167.245a3.489,3.489,0,1,1,3.231-2.18l-.543-.543a1.308,1.308,0,1,0-1.85,1.85l.573.573A3.464,3.464,0,0,1,85.554,107.745Z" transform="translate(-72.522 -59.36)"/><path class="a" d="M307.867,248.467l-.014-.036a1.526,1.526,0,0,0-2.823,0l-.012.03-3.6,9.459a1.308,1.308,0,1,0,2.445.931l.576-1.513h3.982l.57,1.509a1.308,1.308,0,1,0,2.448-.924Zm-2.433,6.257,1-2.636.995,2.636Z" transform="translate(-275.05 -195.665)"/></g></svg>