<svg xmlns="http://www.w3.org/2000/svg" width="238.197" height="244.254" viewBox="0 0 238.197 244.254"><defs><style>.a{fill:#fff;}.a,.b,.c,.d,.e{fill-rule:evenodd;}.b{fill:#cfd3df;}.c{fill:#98eaf9;}.d{fill:#9ea6bf;}.e{fill:#cbf4fb;}</style></defs><g transform="translate(44.334 4.771)"><path class="a" d="M99.28,16.045V77.356h62.89V22.5a12.587,12.587,0,0,1,12.6-12.5H105.374a6.085,6.085,0,0,0-6.094,6.045Z" transform="translate(-99.28 -10)"/></g><g transform="translate(107.224 4.771)"><path class="b" d="M231.109,24.145V33.07H256.3V22.5a12.6,12.6,0,0,0-25.194,0Z" transform="translate(-231.109 -10)"/></g><g transform="translate(4.77 51.707)"><path class="c" d="M37.956,150.241h98.8v29.074h-98.8ZM16.347,118.692V285.86a10.379,10.379,0,0,0,10.388,10.3H147.989a10.367,10.367,0,0,0,10.375-10.3V118.692a10.367,10.367,0,0,0-10.375-10.3H118.8v20.419H55.911V108.388H26.736A10.38,10.38,0,0,0,16.347,118.692Zm21.609,82.069h98.8v73.956h-98.8V200.762Z" transform="translate(-16.347 -108.388)"/></g><g transform="translate(26.379 144.081)"><path class="d" d="M61.643,302.02H94.581v24.652H61.643Z" transform="translate(-61.643 -302.02)"/></g><g transform="translate(59.317 144.081)"><path class="b" d="M130.687,302.02h32.924v24.652H130.687Z" transform="translate(-130.687 -302.02)"/></g><g transform="translate(92.241 144.081)"><path class="d" d="M199.7,302.02H232.64v24.652H199.7Z" transform="translate(-199.702 -302.02)"/></g><g transform="translate(92.241 168.733)"><path class="b" d="M199.7,353.694H232.64v24.652H199.7Z" transform="translate(-199.702 -353.694)"/></g><g transform="translate(59.317 168.733)"><path class="d" d="M130.687,353.694h32.924v24.652H130.687Z" transform="translate(-130.687 -353.694)"/></g><g transform="translate(26.379 168.733)"><path class="b" d="M61.643,353.694H94.581v24.652H61.643Z" transform="translate(-61.643 -353.694)"/></g><g transform="translate(26.379 193.385)"><path class="d" d="M61.643,405.369H94.581v24.652H61.643Z" transform="translate(-61.643 -405.369)"/></g><g transform="translate(59.317 193.385)"><path class="b" d="M130.687,405.369h32.924v24.652H130.687Z" transform="translate(-130.687 -405.369)"/></g><g transform="translate(92.241 193.385)"><path class="d" d="M199.7,405.369H232.64v24.652H199.7Z" transform="translate(-199.702 -405.369)"/></g><g transform="translate(26.379 93.56)"><path class="a" d="M61.643,196.119h98.8v29.074h-98.8Z" transform="translate(-61.643 -196.119)"/></g><g transform="translate(146.788 99.848)"><path class="b" d="M314.041,209.3v20.879H400.68V216.317a7.079,7.079,0,0,0-7.089-7.018h-79.55Z" transform="translate(-314.041 -209.299)"/></g><g transform="translate(146.788 120.727)"><path class="a" d="M314.041,253.066v66.613h79.55a7.079,7.079,0,0,0,7.089-7.019V253.066Zm45,36.931a10.068,10.068,0,1,1,10.061,9.98A10.022,10.022,0,0,1,359.044,290Zm-20.122,0a10.062,10.062,0,1,1,10.061,9.98A10.022,10.022,0,0,1,338.922,290Z" transform="translate(-314.041 -253.066)"/></g><g transform="translate(171.669 147.678)"><path class="e" d="M366.2,319.54a10.061,10.061,0,1,0,10.061-9.98A10.031,10.031,0,0,0,366.2,319.54Z" transform="translate(-366.196 -309.56)"/></g><g transform="translate(191.791 147.678)"><path class="e" d="M408.376,319.54a10.068,10.068,0,1,0,10.061-9.98A10.031,10.031,0,0,0,408.376,319.54Z" transform="translate(-408.376 -309.56)"/></g><g transform="translate(0 0)"><path d="M56.415,224.734h98.8a4.771,4.771,0,0,0,4.771-4.771V190.89a4.771,4.771,0,0,0-4.771-4.771h-98.8a4.771,4.771,0,0,0-4.771,4.771v29.073a4.77,4.77,0,0,0,4.771,4.771Zm4.771-29.073h89.259v19.532H61.185Z" transform="translate(-30.035 -97.329)"/><path d="M51.644,370.746a4.771,4.771,0,0,0,4.771,4.771h98.8a4.771,4.771,0,0,0,4.771-4.771V296.791a4.771,4.771,0,0,0-4.771-4.771h-98.8a4.771,4.771,0,0,0-4.771,4.771Zm75.4-69.184h23.4v15.111h-23.4Zm0,24.651h23.4v15.111h-23.4Zm0,24.652h23.4v15.11h-23.4Zm-32.924-49.3h23.384v15.111H94.123Zm0,24.651h23.384v15.111H94.123Zm0,24.652h23.384v15.11H94.123Zm-32.938-49.3h23.4v15.111h-23.4Zm0,24.651h23.4v15.111h-23.4Zm0,24.652h23.4v15.11h-23.4Z" transform="translate(-30.035 -152.709)"/><path d="M371.027,329.06a14.818,14.818,0,0,0,10.061-3.926,14.75,14.75,0,1,0,0-21.649,14.785,14.785,0,1,0-10.061,25.575ZM391.15,309.1a5.21,5.21,0,1,1-5.291,5.209A5.263,5.263,0,0,1,391.15,309.1Zm-20.123,0a5.21,5.21,0,1,1-5.291,5.209A5.256,5.256,0,0,1,371.027,309.1Z" transform="translate(-189.297 -156.652)"/><path d="M133.6,58.579h25.167a4.771,4.771,0,0,0,0-9.541H133.6a4.771,4.771,0,1,0,0,9.541Z" transform="translate(-70.399 -25.644)"/><path d="M133.6,98.575h25.167a4.771,4.771,0,0,0,0-9.541H133.6a4.771,4.771,0,1,0,0,9.541Z" transform="translate(-70.399 -46.56)"/><path d="M232.686,95.078H157.906V62.012a15.127,15.127,0,0,0-15.145-15.075H118.342V32.611h20.424a4.771,4.771,0,0,0,4.771-4.771V17.265A17.336,17.336,0,0,0,126.169,0H56.776A10.852,10.852,0,0,0,45.911,10.815V46.937h-24.4A15.135,15.135,0,0,0,6.348,62.012V122.12a4.771,4.771,0,1,0,9.541,0V62.012a5.583,5.583,0,0,1,5.618-5.534h24.4V67.356H35.822a4.771,4.771,0,1,0,0,9.541h91.342a4.771,4.771,0,0,0,0-9.541h-8.822V56.478h24.419a5.575,5.575,0,0,1,5.6,5.534V229.179a5.576,5.576,0,0,1-5.6,5.534H21.507a5.583,5.583,0,0,1-5.618-5.534V167.016a4.771,4.771,0,0,0-9.541,0v62.163a15.135,15.135,0,0,0,15.159,15.075H142.761a15.127,15.127,0,0,0,15.145-15.075V192.111h74.779a11.838,11.838,0,0,0,11.86-11.789V106.867a11.838,11.838,0,0,0-11.86-11.789ZM118.342,18.915v-1.65a7.827,7.827,0,0,1,15.653,0v5.8H118.342V18.915Zm-9.541-1.65V67.356H55.453V10.815a1.317,1.317,0,0,1,1.323-1.274h53.868a17.07,17.07,0,0,0-1.842,7.724ZM235,180.322a2.315,2.315,0,0,1-2.319,2.248H157.906V125.5H235Zm0-64.365h-77.1V104.619h74.779A2.315,2.315,0,0,1,235,106.867Z" transform="translate(-6.348 0)"/><path d="M11.119,304.72a4.771,4.771,0,0,0,4.771-4.771v-.027a4.771,4.771,0,1,0-4.771,4.8Z" transform="translate(-6.348 -154.354)"/></g></svg>